<?xml version="1.0" encoding="utf-8"?>
<!-- Generator: Adobe Illustrator 26.1.0, SVG Export Plug-In . SVG Version: 6.00 Build 0)  -->
<svg version="1.1" id="Layer_1" xmlns="http://www.w3.org/2000/svg" xmlns:xlink="http://www.w3.org/1999/xlink" x="0px" y="0px"
	 viewBox="0 0 618 557" style="enable-background:new 0 0 618 557;" xml:space="preserve">
<style type="text/css">
	.st0{fill:#48494B;}
	.st1{fill:#FBFCFD;}
	.st2{fill:#C9CCCF;}
	.st3{fill:#FFFFFF;}
	.st4{fill:#242425;}
	.st5{fill:#F0F0F1;}
	.st6{opacity:0.3;}
	.st7{opacity:0.3;fill:#ABADB2;enable-background:new    ;}
	.st8{fill:#999B9F;}
	.st9{fill-rule:evenodd;clip-rule:evenodd;fill:#FFFFFF;}
	.st10{fill:#ABADB2;}
	.st11{fill:#F0BFA4;}
	.st12{fill:#EAB292;}
	.st13{fill:#505798;}
	.st14{opacity:0.2;enable-background:new    ;}
	.st15{opacity:0.3;enable-background:new    ;}
	.st16{fill:none;stroke:#2F3476;stroke-width:3.2245;stroke-linecap:round;}
</style>
<path class="st0" d="M498.89,401.21c0,0,0.37,0,0.55,0.4c0.05,0.14,0.08,0.28,0.06,0.43c-0.01,0.14-0.06,0.28-0.14,0.4
	c-0.12,0.14-0.27,0.25-0.44,0.3c-0.18,0.05-0.36,0.04-0.53-0.02c-0.17-0.06-0.32-0.18-0.43-0.33c-0.11-0.15-0.17-0.34-0.17-0.52
	c0.02-0.15,0.06-0.29,0.14-0.41c0.08-0.12,0.18-0.23,0.31-0.3c0.42-0.23,0.71,0,0.66,0c-0.05,0-0.25,0-0.47,0.23
	c-0.07,0.05-0.12,0.12-0.15,0.2c-0.03,0.08-0.04,0.17-0.03,0.25c0.01,0.09,0.05,0.16,0.11,0.23c0.06,0.06,0.13,0.11,0.21,0.13
	c0.41,0.16,0.63-0.22,0.56-0.55C499.05,401.32,498.88,401.28,498.89,401.21z"/>
<path class="st1" d="M560.25,553.38H409.7l-0.65-237.55h150.53L560.25,553.38z"/>
<path class="st2" d="M559.58,315.83h-75.27v237.56h75.27V315.83z"/>
<path class="st1" d="M479.4,269.05h-53.17v46.76h53.17V269.05z"/>
<path class="st2" d="M479.4,269.05h-12.67v46.76h12.67V269.05z"/>
<path class="st2" d="M563.98,313.09H396.5v2.73h167.48V313.09z"/>
<path class="st3" d="M451.51,336.21h-12.75v26.83h12.75V336.21z"/>
<path class="st2" d="M484.32,373.57c0,0.28-16.85,0.52-37.63,0.52c-20.77,0-37.64-0.23-37.64-0.52c0-0.28,16.85-0.51,37.64-0.51
	C467.47,373.06,484.32,373.29,484.32,373.57z"/>
<path class="st3" d="M527.44,336.21h-12.75v26.83h12.75V336.21z"/>
<path class="st1" d="M560.25,373.57c0,0.28-16.85,0.52-37.64,0.52c-20.79,0-37.63-0.23-37.63-0.52c0-0.28,16.84-0.51,37.63-0.51
	C543.39,373.06,560.25,373.29,560.25,373.57z"/>
<path class="st3" d="M527.44,389.48h-12.75v26.83h12.75V389.48z"/>
<path class="st1" d="M560.25,426.85c0,0.28-16.85,0.52-37.64,0.52c-20.79,0-37.63-0.23-37.63-0.52c0-0.28,16.84-0.52,37.63-0.52
	C543.39,426.33,560.25,426.56,560.25,426.85z"/>
<path class="st3" d="M527.44,444.36h-12.75v26.83h12.75V444.36z"/>
<path class="st1" d="M560.25,481.71c0,0.28-16.85,0.52-37.64,0.52c-20.79,0-37.63-0.23-37.63-0.52c0-0.28,16.84-0.5,37.63-0.5
	C543.39,481.21,560.25,481.39,560.25,481.71z"/>
<path class="st3" d="M527.44,499.22h-12.75v26.83h12.75V499.22z"/>
<path class="st1" d="M560.25,536.62c0,0.28-16.85,0.52-37.64,0.52c-20.79,0-37.63-0.23-37.63-0.52s16.84-0.52,37.63-0.52
	C543.39,536.11,560.25,536.3,560.25,536.62z"/>
<path class="st3" d="M451.51,390.29h-12.75v26.83h12.75V390.29z"/>
<path class="st2" d="M484.32,427.65c0,0.28-16.85,0.52-37.63,0.52c-20.77,0-37.64-0.23-37.64-0.52c0-0.28,16.85-0.52,37.64-0.52
	C467.47,427.14,484.32,427.38,484.32,427.65z"/>
<path class="st3" d="M451.51,444.37h-12.75v26.83h12.75V444.37z"/>
<path class="st2" d="M484.32,481.73c0,0.28-16.85,0.52-37.63,0.52c-20.77,0-37.64-0.23-37.64-0.52c0-0.28,16.85-0.52,37.64-0.52
	C467.47,481.22,484.32,481.45,484.32,481.73z"/>
<path class="st3" d="M451.51,498.45h-12.75v26.83h12.75V498.45z"/>
<path class="st2" d="M484.32,535.81c0,0.28-16.85,0.52-37.63,0.52c-20.77,0-37.64-0.23-37.64-0.52s16.85-0.52,37.64-0.52
	C467.47,535.3,484.32,535.53,484.32,535.81z"/>
<path class="st0" d="M463.09,485.77c1.59,0.66,3.04,1.64,4.24,2.88c1.2,1.24,2.15,2.7,2.77,4.31c1.23,3.22,1.71,6.69,1.39,10.12
	c-0.43,6.65-3.86,13.5-7.65,18.97c-5.81-4.58-7.51-12.99-8.1-17.3c-0.94-6.83,1.52-19.73,7.38-18.99"/>
<path class="st0" d="M470.84,532.64c-0.47-1.87-0.44-3.83,0.09-5.68c0.53-1.85,1.54-3.53,2.93-4.86c1.41-1.32,3.07-2.33,4.88-3
	c1.81-0.66,3.74-0.96,5.66-0.87c0.89-0.05,1.78,0.09,2.61,0.41s1.58,0.83,2.2,1.47c0.47,0.69,0.75,1.49,0.8,2.32
	c0.05,0.83-0.12,1.66-0.49,2.41c-0.77,1.5-1.92,2.78-3.34,3.68c-4.67,3.26-9.83,5.56-15.34,4.19"/>
<path class="st4" d="M464.7,553.25c0-0.46,0.04-0.91,0.12-1.36c0.13-0.97,0.29-2.21,0.49-3.68c0.43-4.11,1.51-8.14,3.22-11.9
	c1.79-3.77,4.54-6.99,7.99-9.34c1.05-0.7,2.17-1.26,3.36-1.68c0.32-0.12,0.65-0.22,0.98-0.31c0.22-0.06,0.34-0.09,0.34-0.06
	c-2.72,1.02-5.21,2.57-7.32,4.57c-2.11,1.99-3.8,4.39-4.97,7.04c-1.68,3.73-2.79,7.69-3.31,11.75c-0.26,1.55-0.48,2.81-0.65,3.68
	C464.91,552.39,464.82,552.83,464.7,553.25z"/>
<path class="st4" d="M462.08,495.76c0.06,0.19,0.09,0.39,0.1,0.59l0.18,1.69c0.16,1.47,0.34,3.61,0.57,6.26
	c0.43,5.28,0.92,12.59,1.23,20.67c0.31,8.08,0.53,15.42,0.57,20.72c0,2.65,0,4.8,0,6.27c0,0.7,0,1.23,0,1.71
	c0.02,0.2,0.02,0.4,0,0.6c-0.02-0.2-0.02-0.4,0-0.6c0-0.43,0-1.01-0.06-1.71c0-1.53-0.09-3.68-0.16-6.27
	c-0.12-5.29-0.34-12.62-0.7-20.69s-0.8-15.38-1.14-20.67c-0.17-2.6-0.31-4.73-0.41-6.27c0-0.7-0.07-1.23-0.1-1.69
	C462.11,496.16,462.09,495.96,462.08,495.76z"/>
<path class="st0" d="M461.4,537.14c-0.87-3.97-2.68-7.68-5.27-10.81c-2.59-3.13-5.89-5.61-9.63-7.22c-1.9-0.8-4.36-1.23-5.83,0.2
	c-1.46,1.42-1.01,3.93-0.16,5.82c1.83,3.9,4.77,7.18,8.46,9.42c3.69,2.24,7.96,3.33,12.27,3.15"/>
<path class="st4" d="M447.73,525.33c0.42,0.12,0.84,0.27,1.23,0.47c0.47,0.18,0.93,0.4,1.38,0.64c0.52,0.29,1.13,0.57,1.75,0.98
	c0.7,0.42,1.38,0.87,2.03,1.36c0.71,0.51,1.41,1.13,2.15,1.78c1.58,1.47,2.98,3.12,4.19,4.91c1.18,1.79,2.14,3.71,2.88,5.72
	c0.31,0.88,0.57,1.78,0.79,2.69c0.2,0.79,0.35,1.59,0.45,2.39c0.1,0.66,0.16,1.33,0.18,2c0.03,0.5,0.03,1.01,0,1.51
	c0.02,0.43-0.01,0.86-0.09,1.29c-0.11,0,0-1.84-0.48-4.75c-0.11-0.79-0.27-1.57-0.48-2.33c-0.22-0.89-0.49-1.77-0.81-2.63
	c-0.74-1.99-1.71-3.9-2.88-5.67c-1.18-1.74-2.55-3.35-4.08-4.8c-0.72-0.65-1.4-1.23-2.1-1.79c-0.63-0.5-1.28-0.96-1.95-1.39
	C449.39,526.11,447.73,525.43,447.73,525.33z"/>
<path class="st5" d="M189.71-0.09H53.12v554.73h136.59V-0.09z"/>
<path class="st3" d="M119.57,27.56H77.12v77.4h42.45V27.56z"/>
<path class="st2" d="M100.21,104.96c-0.52,0-0.94-17.34-0.94-38.71c0-21.37,0.42-38.69,0.94-38.69c0.52,0,0.91,17.32,0.91,38.69
	C101.11,87.62,100.63,104.96,100.21,104.96z"/>
<path class="st2" d="M119.57,54.28c-7.06,0.82-14.14,1.09-21.22,0.82c-7.08,0.27-14.17,0-21.24-0.82
	c7.06-0.82,14.15-1.09,21.24-0.82C105.43,53.19,112.51,53.46,119.57,54.28z"/>
<path class="st2" d="M119.57,81.92c-7.06,0.82-14.15,1.09-21.24,0.82c-7.08,0.27-14.16,0-21.22-0.82
	c7.06-0.82,14.14-1.09,21.22-0.82C105.42,80.83,112.51,81.11,119.57,81.92z"/>
<path class="st3" d="M119.57,128.92H78.96v77.4h40.61V128.92z"/>
<path class="st2" d="M100.19,206.32c-0.51,0-0.92-17.33-0.92-38.7c0-21.38,0.41-38.7,0.92-38.7s0.92,17.33,0.92,38.7
	C101.11,188.99,100.7,206.32,100.19,206.32z"/>
<path class="st2" d="M119.57,155.64c-6.76,0.82-13.54,1.09-20.31,0.82c-6.77,0.27-13.54,0-20.29-0.82
	c6.75-0.82,13.52-1.09,20.29-0.82C106.03,154.55,112.81,154.82,119.57,155.64z"/>
<path class="st2" d="M119.57,183.28c-6.75,0.82-13.52,1.09-20.29,0.82c-6.78,0.27-13.56,0-20.31-0.82
	c6.76-0.82,13.54-1.09,20.31-0.82C106.05,182.19,112.82,182.47,119.57,183.28z"/>
<path class="st3" d="M119.57,228.44H78.96v77.4h40.61V228.44z"/>
<path class="st2" d="M100.19,305.84c-0.51,0-0.92-17.33-0.92-38.7c0-21.38,0.41-38.7,0.92-38.7s0.92,17.33,0.92,38.7
	C101.11,288.51,100.7,305.84,100.19,305.84z"/>
<path class="st2" d="M119.57,282.8c-6.75,0.82-13.52,1.09-20.29,0.82c-6.78,0.27-13.56,0-20.31-0.82
	c6.76-0.82,13.54-1.09,20.31-0.82C106.05,281.71,112.82,281.98,119.57,282.8z"/>
<path class="st3" d="M119.57,331.64H78.96v77.4h40.61V331.64z"/>
<path class="st2" d="M100.19,409.04c-0.51,0-0.92-17.32-0.92-38.69c0-21.37,0.41-38.71,0.92-38.71s0.92,17.32,0.92,38.71
	S100.7,409.04,100.19,409.04z"/>
<path class="st1" d="M246.93-0.09h-99.67v554.73h99.67V-0.09z"/>
<g class="st6">
	<path class="st7" d="M247.1-0.09h-99.36v554.17h99.36V-0.09z"/>
</g>
<path class="st3" d="M217.4,27.56h-40.61v77.4h40.61V27.56z"/>
<path class="st2" d="M198.01,104.96c-0.51,0-0.92-17.34-0.92-38.71c0-21.37,0.41-38.69,0.92-38.69c0.51,0,0.92,17.32,0.92,38.69
	C198.94,87.62,198.52,104.96,198.01,104.96z"/>
<path class="st2" d="M217.4,54.28c-6.75,0.82-13.52,1.09-20.29,0.82c-6.78,0.27-13.56,0-20.31-0.82c6.76-0.82,13.54-1.09,20.31-0.82
	C203.87,53.19,210.65,53.46,217.4,54.28z"/>
<path class="st2" d="M217.4,81.92c-7.06,0.82-14.15,1.09-21.24,0.82c-7.08,0.27-14.16,0-21.22-0.82c7.06-0.82,14.14-1.09,21.22-0.82
	C203.24,80.83,210.33,81.11,217.4,81.92z"/>
<path class="st3" d="M217.4,132.6h-40.61v75.56h40.61V132.6z"/>
<path class="st2" d="M198.01,208.16c-0.51,0-0.92-16.93-0.92-37.79s0.41-37.77,0.92-37.77c0.51,0,0.92,16.91,0.92,37.77
	S198.52,208.16,198.01,208.16z"/>
<path class="st3" d="M217.4,228.44h-40.61v77.4h40.61V228.44z"/>
<path class="st2" d="M198.01,305.84c-0.51,0-0.92-17.33-0.92-38.7c0-21.38,0.41-38.7,0.92-38.7c0.51,0,0.92,17.33,0.92,38.7
	C198.94,288.51,198.52,305.84,198.01,305.84z"/>
<path class="st2" d="M217.4,282.8c-6.75,0.82-13.52,1.09-20.29,0.82c-6.78,0.27-13.56,0-20.31-0.82c6.76-0.82,13.54-1.09,20.31-0.82
	C203.87,281.71,210.64,281.98,217.4,282.8z"/>
<path class="st3" d="M219.24,333.48h-40.61v77.4h40.61V333.48z"/>
<path class="st2" d="M199.84,410.89c-0.52,0-0.91-17.33-0.91-38.7c0-21.37,0.39-38.7,0.91-38.7c0.52,0,0.94,17.33,0.94,38.7
	C200.78,393.56,200.36,410.89,199.84,410.89z"/>
<path class="st2" d="M219.24,387.85c-7.06,0.82-14.14,1.09-21.23,0.82c-7.08,0.27-14.17,0-21.23-0.82
	c7.06-0.82,14.15-1.09,21.23-0.82C205.1,386.76,212.18,387.03,219.24,387.85z"/>
<path class="st3" d="M119.57,438.53H78.96v75.56h40.61V438.53z"/>
<path class="st2" d="M100.19,514.09c-0.51,0-0.92-16.93-0.92-37.79c0-20.86,0.41-37.77,0.92-37.77s0.92,16.91,0.92,37.77
	C101.11,497.16,100.7,514.09,100.19,514.09z"/>
<path class="st2" d="M119.57,465.26c-6.76,0.82-13.54,1.09-20.31,0.82c-6.77,0.27-13.54,0-20.29-0.82
	c6.75-0.82,13.52-1.09,20.29-0.82C106.03,464.16,112.81,464.44,119.57,465.26z"/>
<path class="st2" d="M119.57,492.9c-6.75,0.82-13.52,1.09-20.29,0.82c-6.78,0.27-13.56,0-20.31-0.82
	c6.76-0.82,13.54-1.09,20.31-0.82C106.05,491.81,112.82,492.08,119.57,492.9z"/>
<path class="st3" d="M217.4,442.22h-40.61v75.56h40.61V442.22z"/>
<path class="st2" d="M198.01,517.78c-0.51,0-0.92-16.92-0.92-37.78c0-20.86,0.41-37.78,0.92-37.78c0.51,0,0.92,16.92,0.92,37.78
	C198.94,500.86,198.52,517.78,198.01,517.78z"/>
<path class="st2" d="M228.47,489.77c-0.01-0.15-0.01-0.3,0-0.45c0-0.39,0-0.84,0-1.37c0-1.35,0-3.08,0-5.2h0.1h21.91l0.14,0.14v7.09
	h-0.14h-15.71h-4.57h4.61h15.7l-0.14,0.14v-6.95c0.28,0.31,0,0,0.14,0.16h-21.91v-0.1c0,2.04,0,3.81,0,5.13c0,0.53,0,1,0,1.38
	C228.61,490.16,228.47,489.77,228.47,489.77z"/>
<path class="st2" d="M221.09,495.39c-0.01-0.11-0.01-0.22,0-0.34c0-0.29,0-0.63,0-1.02c0-0.99,0-2.29,0-3.9h0.1h21.91l0.14,0.11
	v5.32h-0.14h-15.71h-4.57h4.61h15.7l-0.14,0.11v-2.57c0-0.44,0-0.89,0-1.33v-1.31l0.16,0.12h-21.91v-0.08c0,1.53,0,2.87,0,3.85
	c0,0.4,0,0.75,0,1.04H221.09z"/>
<path class="st0" d="M617.97,554.98c0,0.2-138.37,0.34-309.02,0.34c-170.65,0-309.05-0.14-309.05-0.34
	c0-0.2,138.34-0.34,309.05-0.34C479.66,554.63,617.97,554.79,617.97,554.98z"/>
<path class="st0" d="M340.57,556.64c-0.52-1.25-0.95-2.55-1.3-3.87c-1.99-6.24-4.61-12.2-7.79-17.74c-0.73-1.08-1.38-2.22-1.94-3.43
	c0.91,0.93,1.71,1.99,2.39,3.15c1.73,2.71,3.27,5.57,4.59,8.57c1.32,3,2.41,6.13,3.27,9.34
	C340.21,553.94,340.47,555.28,340.57,556.64z"/>
<path class="st0" d="M345.69,556.36c-0.21,0-2.31-8.35-4.72-18.86c-2.42-10.51-4.18-18.99-3.97-19.04
	c0.21-0.05,2.31,8.35,4.72,18.86C344.13,547.83,345.89,556.31,345.69,556.36z"/>
<path class="st0" d="M352.09,556.67c-0.1-9.47,0.32-18.94,1.26-28.35C353.43,537.79,353.01,547.26,352.09,556.67z"/>
<path class="st0" d="M559.61,534.15c0.8,0.8,1.48,1.73,2.03,2.78c1.47,2.39,2.75,4.94,3.82,7.59c1.09,2.66,1.97,5.42,2.62,8.26
	c0.33,1.16,0.52,2.36,0.55,3.58c-0.24,0-1.35-5.31-3.87-11.45C562.25,538.78,559.42,534.3,559.61,534.15z"/>
<path class="st0" d="M574.22,503.91c0.13,0-0.72,2.9-1.61,7.61c-2.33,12.33-2.03,25.13,0.87,37.3c1.11,4.65,2.1,7.42,1.97,7.49
	c-0.32-0.6-0.59-1.24-0.8-1.9c-0.64-1.77-1.21-3.58-1.69-5.42c-0.72-2.73-1.3-5.5-1.73-8.31c-1.06-6.9-1.23-13.94-0.49-20.9
	c0.3-2.83,0.74-5.63,1.33-8.4c0.41-1.87,0.9-3.71,1.48-5.52C573.72,505.18,573.94,504.53,574.22,503.91z"/>
<path class="st0" d="M241.82,514.76c0.42,2.03,0.73,4.08,0.92,6.15c0.5,3.8,1.24,9.05,2.22,14.81c0.98,5.76,2.03,10.94,2.82,14.67
	c0.51,2,0.89,4.04,1.17,6.1c-0.23-0.49-0.41-1.02-0.53-1.56c-0.31-1.03-0.7-2.52-1.17-4.37c-0.92-3.72-2.04-8.9-3.04-14.67
	c-0.99-5.78-1.64-11.06-2.01-14.9c-0.18-1.92-0.3-3.43-0.36-4.56C241.76,515.88,241.75,515.31,241.82,514.76z"/>
<path class="st0" d="M224.81,531.73c1.23,0.79,2.38,1.75,3.42,2.85c2.62,2.5,5.06,5.23,7.3,8.18c2.24,2.95,4.26,6.11,6.06,9.45
	c0.81,1.33,1.48,2.78,1.99,4.3c-0.89-1.26-1.7-2.58-2.43-3.96c-1.92-3.19-4-6.27-6.21-9.2c-2.22-2.92-4.58-5.7-7.07-8.31
	C226.79,534.01,225.76,532.91,224.81,531.73z"/>
<path class="st0" d="M261.74,526.45c-0.33,1.46-0.75,2.9-1.27,4.28c-0.83,2.62-1.91,6.27-2.96,10.37c-1.05,4.1-1.67,7.87-2.13,10.61
	c-0.18,1.5-0.45,2.99-0.81,4.44c-0.07-1.52,0.03-3.05,0.28-4.54c0.43-3.63,1.07-7.22,1.93-10.75c0.85-3.53,1.9-7,3.14-10.37
	C260.37,529.07,260.99,527.71,261.74,526.45z"/>
<path class="st5" d="M618.94,110.71c0.92-6.62-8.45-12.07-15.5-12.64c-3.35-0.26-6.84,0.25-10.01-0.85
	c-6.88-2.4-9.62-11.28-16.34-14.11c-5.02-2.1-10.85-0.23-15.67,2.23c-4.82,2.46-9.67,5.51-15.11,5.86
	c-4.73,0.29-9.87-1.45-13.95,0.85c-3.1,1.72-4.65,5.28-7.53,7.37c-2.88,2.09-6.42,2.48-9.86,2.66c-3.44,0.19-7.02,0.23-10.17,1.67
	c-3.14,1.44-5.84,4.75-5.21,8.22L618.94,110.71z"/>
<path class="st2" d="M550.44,206.17c1.33-9.67-12.4-17.64-22.63-18.46c-4.9-0.4-10,0.36-14.65-1.27
	c-10.06-3.5-14.07-16.48-23.9-20.61c-7.33-3.09-15.79-0.34-22.9,3.23c-7.12,3.57-14.15,8.08-22.1,8.59
	c-6.91,0.43-14.43-2.12-20.47,1.25c-4.51,2.51-6.88,7.74-11.03,10.75c-4.15,3.02-9.3,3.64-14.41,3.9
	c-5.11,0.26-10.26,0.32-14.86,2.43c-4.6,2.1-8.38,6.95-7.44,11.9L550.44,206.17z"/>
<g>
	<path class="st4" d="M394.62,440.32l-119.86-11.89c-6.92-0.69-13.28-4.09-17.69-9.47c-4.41-5.37-6.5-12.28-5.81-19.19l29.8-300.26
		c0.69-6.92,4.1-13.28,9.49-17.69c5.38-4.41,12.3-6.5,19.22-5.81L429.63,87.9c3.43,0.34,6.75,1.35,9.79,2.97
		c3.04,1.62,5.72,3.83,7.9,6.49c2.18,2.66,3.82,5.73,4.82,9.02c1,3.29,1.33,6.75,0.99,10.18l-29.8,300.25
		c-0.34,3.43-1.35,6.75-2.98,9.79c-1.63,3.04-3.84,5.72-6.5,7.91c-2.67,2.18-5.74,3.82-9.04,4.82
		C401.52,440.32,398.05,440.66,394.62,440.32z"/>
	<path class="st8" d="M427.63,96.21l-23.24-2.31c-1.53-0.11-3.05,0.38-4.22,1.38c-1.17,1-1.89,2.42-2.01,3.96l-0.4,4.21
		c-0.06,0.76-0.26,1.5-0.61,2.18c-0.34,0.68-0.82,1.28-1.4,1.78s-1.25,0.87-1.97,1.11c-0.72,0.24-1.49,0.33-2.25,0.27l-45.29-4.49
		c-1.53-0.19-2.92-0.97-3.87-2.18c-0.95-1.21-1.38-2.75-1.2-4.27l0.4-4.22c0.18-1.53-0.25-3.06-1.2-4.27
		c-0.95-1.21-2.34-1.99-3.87-2.18l-8.18-0.77l-20.34-2.01c-2.4-0.24-4.83,0-7.14,0.7c-2.31,0.7-4.46,1.84-6.33,3.37
		c-1.87,1.53-3.42,3.41-4.56,5.53c-1.14,2.13-1.85,4.46-2.09,6.85l-29.09,293.07c-0.23,2.4,0.01,4.82,0.71,7.13
		c0.71,2.31,1.86,4.45,3.39,6.32c1.53,1.86,3.42,3.4,5.55,4.54c2.13,1.13,4.47,1.83,6.87,2.07l119.62,11.87
		c2.4,0.24,4.83,0,7.13-0.7c2.31-0.7,4.46-1.84,6.33-3.37c1.87-1.53,3.41-3.41,4.55-5.54s1.85-4.45,2.09-6.86l29.08-293.03
		c0.25-2.41,0.01-4.83-0.69-7.15c-0.7-2.31-1.85-4.47-3.38-6.34c-1.53-1.87-3.42-3.42-5.55-4.56
		C432.38,97.15,430.04,96.44,427.63,96.21z"/>
	<path class="st4" d="M313.95,109.81c-2.26,0.03-4.52-0.1-6.76-0.39c-2.25-0.13-4.49-0.43-6.71-0.88c2.26-0.04,4.51,0.09,6.75,0.39
		C309.5,109.05,311.74,109.34,313.95,109.81z"/>
	<path class="st4" d="M313.68,112.62c-2.26,0.04-4.52-0.09-6.76-0.39c-2.25-0.13-4.49-0.42-6.7-0.88c2.26-0.03,4.51,0.1,6.75,0.39
		C309.23,111.86,311.47,112.16,313.68,112.62z"/>
	<path class="st4" d="M313.42,115.41c-2.26,0.04-4.52-0.09-6.76-0.39c-2.25-0.13-4.49-0.42-6.7-0.88c2.26-0.03,4.51,0.1,6.75,0.39
		C308.96,114.65,311.21,114.95,313.42,115.41z"/>
	<path class="st9" d="M292.33,128.67L432.5,143.4l-13.99,153.4c-0.03-0.01-0.07-0.01-0.11-0.02l0.43-5.86l-11.72-0.86l-0.79,10.72
		l6.41,0.47l-0.01,0.06c-0.29,2.79,1.73,5.3,4.54,5.59c0.11,0.01,0.21,0.02,0.31,0.02l-9.27,101.64l-143.13-14.66l9.94-97.1
		c2.49-0.09,4.6-2,4.87-4.56c0.03-0.25,0.03-0.5,0.02-0.75l9.12,0.67l0.79-10.72l-11.72-0.86l-0.51,6.86
		c-0.47-0.31-0.99-0.54-1.56-0.67L292.33,128.67z M336.01,295.61l-23.44-1.72l0.79-10.72l23.44,1.72L336.01,295.61z M382.89,299.06
		l-23.44-1.72l0.79-10.72l23.44,1.72L382.89,299.06z"/>
	<path class="st3" d="M432.5,143.4l1.07,0.1l0.09-1.06l-1.05-0.11L432.5,143.4z M292.33,128.67l0.11-1.07l-1.07-0.11l-0.11,1.07
		L292.33,128.67z M418.51,296.8l-0.15,1.06l1.12,0.15l0.1-1.12L418.51,296.8z M418.4,296.78l-1.07-0.08l-0.08,1.03l1.02,0.12
		L418.4,296.78z M418.83,290.92l1.07,0.08l0.08-1.07l-1.07-0.08L418.83,290.92z M407.12,290.06l0.08-1.07l-1.07-0.08l-0.08,1.07
		L407.12,290.06z M406.33,300.78l-1.07-0.08l-0.08,1.07l1.07,0.08L406.33,300.78z M412.74,301.25l1.07,0.12l0.12-1.11l-1.11-0.08
		L412.74,301.25z M412.73,301.31l-1.07-0.12v0L412.73,301.31z M417.27,306.9l-0.11,1.07l0,0L417.27,306.9z M417.58,306.92l1.07,0.1
		l0.1-1.12l-1.13-0.05L417.58,306.92z M408.31,408.57l-0.11,1.07l1.08,0.11l0.1-1.08L408.31,408.57z M265.18,393.91l-1.07-0.11
		l-0.11,1.07l1.07,0.11L265.18,393.91z M275.12,296.8l-0.04-1.07l-0.93,0.03l-0.1,0.93L275.12,296.8z M280,292.25l-1.07-0.11l0,0
		L280,292.25z M280.02,291.5l0.08-1.07l-1.2-0.09l0.05,1.2L280.02,291.5z M289.14,292.17l-0.08,1.07l1.07,0.08l0.08-1.07
		L289.14,292.17z M289.93,281.45l1.07,0.08l0.08-1.07l-1.07-0.08L289.93,281.45z M278.21,280.59l0.08-1.07l-1.07-0.08l-0.08,1.07
		L278.21,280.59z M277.7,287.45l-0.58,0.9l1.52,0.99l0.13-1.81L277.7,287.45z M276.15,286.78l-1.07-0.11l-0.09,0.93l0.91,0.22
		L276.15,286.78z M312.58,293.89l-1.07-0.08l-0.08,1.07l1.07,0.08L312.58,293.89z M336.01,295.61l-0.08,1.07l1.07,0.08l0.08-1.07
		L336.01,295.61z M313.36,283.17l0.08-1.07l-1.07-0.08l-0.08,1.07L313.36,283.17z M336.8,284.9l1.07,0.08l0.08-1.07l-1.07-0.08
		L336.8,284.9z M359.45,297.34l-1.07-0.08l-0.08,1.07l1.07,0.08L359.45,297.34z M382.89,299.06l-0.08,1.07l1.07,0.08l0.08-1.07
		L382.89,299.06z M360.24,286.62l0.08-1.07l-1.07-0.08l-0.08,1.07L360.24,286.62z M383.68,288.34l1.07,0.08l0.08-1.07l-1.07-0.08
		L383.68,288.34z M432.61,142.33L292.45,127.6l-0.23,2.14l140.16,14.73L432.61,142.33z M419.58,296.9l13.99-153.4l-2.14-0.2
		l-13.99,153.4L419.58,296.9z M418.28,297.85c0.03,0,0.05,0.01,0.08,0.01l0.3-2.13c-0.04,0-0.08-0.01-0.13-0.02L418.28,297.85z
		 M417.76,290.84l-0.43,5.86l2.14,0.16l0.43-5.86L417.76,290.84z M407.04,291.13l11.72,0.86l0.16-2.14l-11.72-0.86L407.04,291.13z
		 M407.4,300.86l0.79-10.72l-2.15-0.16l-0.79,10.72L407.4,300.86z M412.82,300.18l-6.41-0.47l-0.16,2.14l6.41,0.47L412.82,300.18z
		 M413.8,301.43l0.01-0.06l-2.14-0.24l-0.01,0.06L413.8,301.43z M417.38,305.83c-2.21-0.23-3.81-2.21-3.58-4.41l-2.14-0.23
		c-0.36,3.39,2.1,6.42,5.49,6.78L417.38,305.83z M417.63,305.85c-0.08,0-0.17-0.01-0.25-0.02l-0.23,2.14
		c0.13,0.02,0.26,0.02,0.38,0.03L417.63,305.85z M409.38,408.67l9.27-101.64l-2.14-0.19l-9.27,101.64L409.38,408.67z M265.07,394.98
		l143.13,14.66l0.22-2.14l-143.13-14.66L265.07,394.98z M274.05,296.69l-9.94,97.1l2.14,0.22l9.94-97.1L274.05,296.69z
		 M275.16,297.88c3.02-0.11,5.58-2.42,5.9-5.51l-2.14-0.23c-0.21,2.01-1.87,3.52-3.84,3.59L275.16,297.88z M281.06,292.36
		c0.03-0.31,0.04-0.61,0.03-0.91l-2.15,0.09c0.01,0.2,0,0.39-0.02,0.59L281.06,292.36z M279.94,292.57l9.12,0.67l0.16-2.14
		l-9.12-0.67L279.94,292.57z M290.21,292.25l0.79-10.72l-2.14-0.16l-0.79,10.72L290.21,292.25z M290.01,280.38l-11.72-0.86
		l-0.16,2.14l11.72,0.86L290.01,280.38z M277.14,280.51l-0.51,6.86l2.15,0.16l0.51-6.86L277.14,280.51z M278.29,286.55
		c-0.57-0.37-1.2-0.65-1.89-0.82l-0.51,2.09c0.44,0.11,0.86,0.29,1.23,0.53L278.29,286.55z M291.27,128.56l-16.19,158.11l2.14,0.22
		l16.19-158.11L291.27,128.56z M312.5,294.96l23.44,1.72l0.16-2.14l-23.44-1.72L312.5,294.96z M312.29,283.09l-0.79,10.72l2.15,0.16
		l0.79-10.72L312.29,283.09z M336.88,283.82l-23.44-1.72l-0.16,2.14l23.44,1.72L336.88,283.82z M337.09,295.69l0.79-10.72
		l-2.14-0.16l-0.79,10.72L337.09,295.69z M359.37,298.41l23.44,1.72l0.16-2.14l-23.44-1.72L359.37,298.41z M359.17,286.54
		l-0.79,10.72l2.14,0.16l0.79-10.72L359.17,286.54z M383.76,287.27l-23.44-1.72l-0.16,2.14l23.44,1.72L383.76,287.27z
		 M383.96,299.14l0.79-10.72l-2.15-0.16l-0.79,10.72L383.96,299.14z"/>
	<path class="st3" d="M294.81,158.42l-10.99,124.07l124.23,10.97l10.99-124.07L294.81,158.42z"/>
	<path class="st4" d="M332.73,170.35l-29.95-2.64l-2.65,29.92l29.95,2.64L332.73,170.35z M326.07,195.48l-21.15-1.87l1.87-21.12
		l21.14,1.87L326.07,195.48z"/>
	<path class="st4" d="M293.31,274.48l29.95,2.64l2.65-29.92l-29.95-2.64L293.31,274.48z M299.99,249.35l21.14,1.87l-1.87,21.12
		l-21.14-1.87L299.99,249.35z"/>
	<path class="st4" d="M310.66,176.98l-1.12,12.61l12.62,1.11l1.12-12.61L310.66,176.98z"/>
	<path class="st4" d="M303.85,253.97l-1.12,12.61l12.62,1.11l1.12-12.61L303.85,253.97z"/>
	<path class="st4" d="M409.4,177.13l-29.96-2.64l-2.65,29.92l29.96,2.64L409.4,177.13z M402.73,202.26l-21.14-1.87l1.87-21.12
		l21.15,1.87L402.73,202.26z"/>
	<path class="st4" d="M362.88,263.7l21.37,1.89l1.89-21.34l-21.37-1.89L362.88,263.7z M368.55,246.74l13.1,1.15l-1.16,13.09
		l-13.1-1.15L368.55,246.74z"/>
	<path class="st4" d="M387.33,183.75l-1.12,12.61l12.62,1.11l1.12-12.61L387.33,183.75z"/>
	<path class="st4" d="M369.39,190.73l-1.53,17.31l4.11,0.36l1.53-17.31L369.39,190.73z"/>
	<path class="st4" d="M371.98,208.4l-0.39,4.41l8.23,0.73l0.39-4.41L371.98,208.4z"/>
	<path class="st4" d="M328.41,217.54l0.38-4.38l9.11,0.81l0.36-4.11l-9.1-0.81l0.38-4.37l-4.4-0.39l-0.38,4.38l-4.11-0.37l0.38-4.37
		l-4.4-0.39l-0.46,5.23l-0.29,3.26l8.52,0.75l-0.38,4.37L328.41,217.54z"/>
	<path class="st4" d="M318.79,224.98l-0.39,4.41l8.22,0.72l0.39-4.41L318.79,224.98z"/>
	<path class="st4" d="M301.49,228.2l-3.96-0.35l-0.7,7.92l4.11,0.37l-0.45,4.99l12.49,1.1l0.44-4.99l4.7,0.41l-0.44,4.99l8.3,0.74
		l0.44-4.99l12.41,1.09l0.36-4.11l4.7,0.42l-0.36,4.11l4.29,0.38l-0.4,4.55l4.33,0.38l-0.39,4.3l4.39,0.39l0.38-4.31l4,0.35
		l0.42-4.69l-8.77-0.77l0.38-4.26l-3.23-0.28l0.72-8.09l4.03,0.36l0.39-4.4l-4.38-0.38l-0.38,4.37l-4.43-0.38l0.39-4.38l-4.38-0.39
		l-0.38,4.38l-4.21-0.36l0.38-4.38l4.19,0.36l0.38-4.4l-4.37-0.38l-0.4,4.4l-4.18-0.37l-0.4,4.4l4.24,0.37l-0.38,4.28l-9.11-0.8
		l-0.34,3.8l-12.18-1.07l0.72-8.18l-4.4-0.39l-0.42,4.67l-4.11-0.36l0.42-4.67l-4.11-0.36l0.36-4.07l8.74,0.77l0.36-4.11l-8.81-0.78
		l-0.35,3.99l-4.33-0.38l-0.39,4.37l4.11,0.37L301.49,228.2z"/>
	<path class="st4" d="M367.01,268l-4.4-0.38l-0.38,4.37l-4.11-0.36l0.38-4.37l-4.4-0.39l-0.38,4.37l-0.08,0.86l-0.29,3.25l8.53,0.75
		l-0.39,4.38l4.41,0.38l0.39-4.37l9.1,0.8l0.36-4.11l-9.1-0.8L367.01,268z"/>
	<path class="st4" d="M358.63,263.17l0.37-4.11l-4.26-0.38l0.39-4.37l-4.4-0.39l-0.39,4.38l-4.11-0.37l0.39-4.37l-4.42-0.39
		l-0.38,4.38l-0.08,0.85l-0.28,3.11l-12.77-1.13l-0.37,4.12l17.18,1.51l0.36-3.97l4.11,0.37l-0.39,4.37l4.4,0.39l0.39-4.38
		L358.63,263.17z"/>
	<path class="st4" d="M303.24,210.91l8.81,0.78l0.37-4.11l-8.74-0.77l0.38-4.37l-4.4-0.39l-0.38,4.38l4.32,0.38L303.24,210.91z"/>
	<path class="st4" d="M375.13,234.61l-0.39,4.41l8.22,0.73l0.39-4.41L375.13,234.61z"/>
	<path class="st4" d="M399.89,241.03l0.4-4.47l3.96,0.35l0.7-7.92l-4.11-0.36l0.44-4.91l3.67,0.32l0.4-4.4l-3.23-0.28l0.72-8.11
		l-13.51-1.19l-0.38,4.3l-9.1-0.8l-0.34,3.81l-12.19-1.07l0.72-8.18l-4.4-0.39l-0.41,4.66l-4.11-0.36l0.42-4.66l-4.4-0.39
		l-0.42,4.66l-3.58-0.32l1.92-21.65l8.19,0.72l0.39-4.4l-4.67-0.41l0.36-4.11l4.67,0.41l0.4-4.4l-4.67-0.41l0.35-3.96l-7.93-0.7
		l-0.36,4.11l-4.92-0.44l0.32-3.66l-4.4-0.39l-0.34,3.81l-3.82-0.34l-1.95,22l4.11,0.36l1.56-17.6l4.04,0.36l-0.7,7.92l4.99,0.44
		l-1.26,14.16l-4.77-0.42l-0.39,4.4l4.77,0.42l-0.6,6.82l4.01,0.36l-0.4,4.5l13.51,1.19l2.94,0.26l9.33,0.82l-0.44,4.91l-12.41-1.09
		l-0.36,4.11l-9.1-0.8l-0.36,4.11l22.02,1.95l0.34-3.81l12.19,1.07l-0.72,8.18l4.4,0.39l0.42-4.66l4.11,0.36l-0.42,4.66l4.11,0.36
		l-0.36,4.06l-9.03-0.8l-0.36,4.11l9.1,0.8l0.36-3.99l4.33,0.38l0.38-4.37L399.89,241.03z M397.09,219.2l-0.36,4l-4.7-0.42l0.36-4
		L397.09,219.2z M384.09,222.19l4.7,0.41l-0.44,4.91l-4.7-0.41L384.09,222.19z"/>
	<path class="st4" d="M393.17,257.58l4.92,0.44l-0.46,5.12l4.11,0.37l0.46-5.14l0.07,0l0.36-4.11l-9.1-0.8L393.17,257.58z"/>
	<path class="st4" d="M391.38,277.82l4.92,0.44l-0.46,5.12l4.11,0.37l0.46-5.14l0.07,0l0.36-4.11l-9.1-0.8L391.38,277.82z"/>
	<path class="st4" d="M360.26,198.84l-0.39,4.41l4.38,0.39l0.39-4.41L360.26,198.84z"/>
	<path class="st4" d="M356.02,194.03l-0.39,4.41l4.38,0.39l0.39-4.41L356.02,194.03z"/>
	<path class="st4" d="M388.96,261.01l-0.39,4.41l4.38,0.39l0.39-4.41L388.96,261.01z"/>
	<path class="st4" d="M336.27,274.09l-0.39,4.4l4.38,0.39l0.39-4.41L336.27,274.09z"/>
	<path class="st4" d="M331.89,273.72l-4.18-0.37l-0.4,4.41l4.39,0.38l0.38-4.4l4.19,0.36l0.38-4.4l-4.37-0.38L331.89,273.72z"/>
	<path class="st4" d="M345.11,274.88l-0.39,4.41l4.38,0.39l0.39-4.41L345.11,274.88z"/>
	<path class="st4" d="M341.09,270.08l-0.39,4.4l4.38,0.39l0.39-4.4L341.09,270.08z"/>
	<path class="st4" d="M338.41,202.32l4.18,0.36l0.39-4.4l-4.39-0.38l-0.38,4.4l-4.18-0.37l-0.4,4.4l4.37,0.39L338.41,202.32z"/>
	<path class="st4" d="M345.64,218.6l-0.39,4.41l4.38,0.39l0.39-4.41L345.64,218.6z"/>
	<path class="st4" d="M372.5,251.36l-0.39,4.41l4.38,0.39l0.39-4.41L372.5,251.36z"/>
	<path class="st4" d="M355.96,249.89l-0.39,4.41l4.38,0.39l0.39-4.41L355.96,249.89z"/>
	<path class="st4" d="M338.56,248.36l-0.39,4.41l4.38,0.39l0.39-4.41L338.56,248.36z"/>
	<path class="st4" d="M366.41,178.03l-0.81,9.09l4.11,0.36l0.8-9.09L366.41,178.03z"/>
	<ellipse class="st8" cx="358.35" cy="134.49" rx="16.18" ry="16.15"/>
	<ellipse class="st3" cx="357.65" cy="132.64" rx="16.18" ry="16.15"/>
	<path class="st10" d="M288.83,313.54l1.83-5.05l19.17,2.28l-0.76,4.8L288.83,313.54z"/>
	<path class="st10" d="M287.38,322.7l0.83-5.23l42.68,5.61l0.4,3.9L287.38,322.7z"/>
	<path class="st10" d="M287.27,338.01l0.78-5.25l20,3.54l-0.52,3.5L287.27,338.01z"/>
	<path class="st10" d="M285.91,347.18l0.78-5.24l32.18,2.78l0.25,4.3L285.91,347.18z"/>
	<path class="st10" d="M285.31,361.32l0.15,5.49l12.15-0.4l-0.1-3.66L285.31,361.32z"/>
	<path class="st10" d="M284.06,374.54l1.07-5.03l23.25,3.04l-0.23,4.14L284.06,374.54z"/>
	<path class="st10" d="M349.22,319.38l1.21-4.09l38.69,4.45l-0.34,3.52L349.22,319.38z"/>
	<path class="st10" d="M349.48,329.4l0.9-5.37l40.74,5.13l0.39,4.47L349.48,329.4z"/>
	<path class="st10" d="M320.06,157.37l0.98-5.37l76.21,10.9l1.29,4.63L320.06,157.37z"/>
	<path class="st10" d="M348.63,346.24l0.72-5.25l10.16,1.66l-0.48,3.5L348.63,346.24z"/>
	<path class="st10" d="M347.38,355.43l0.72-5.25l31.44,2.22l0.28,4.3L347.38,355.43z"/>
	<path class="st10" d="M346.66,370.93l0.72-5.26l30.89,5.04l-0.48,3.5L346.66,370.93z"/>
	<path class="st10" d="M345.4,380.12l0.72-5.25l51.69,5.52l0.83,4.39L345.4,380.12z"/>
</g>
<g>
	<path class="st1" d="M160.2,250.79l7.1,13.25c-20.78,33.82-10.11,78.08,23.77,98.76c33.87,20.74,78.21,10.08,98.92-23.75
		c20.78-33.82,10.11-78.08-23.76-98.76c-29.55-18.05-67.77-12.56-91,13.12L160.2,250.79z"/>
	<path class="st4" d="M160.2,250.79c0.89,0.18,5.29,0.89,15.1,2.45l-0.12-0.01c3.25-3.62,6.89-6.92,10.81-9.83
		c2.47-1.81,4.98-3.45,7.66-4.89c1.38-0.81,2.92-1.43,4.47-2.16c1.56-0.8,3.17-1.53,4.77-2.08c1.66-0.61,3.39-1.21,5.17-1.87
		l5.56-1.37l1.47-0.38c0.49-0.09,0.97-0.12,1.46-0.2c0.97-0.12,2-0.29,2.97-0.4c0.97-0.17,2.01-0.35,3.03-0.4l3.13-0.15
		c19.4-0.86,38.4,6.1,52.66,19.29l1.47,1.3l1.34,1.53l2.74,3l0.67,0.76l0.61,0.82l1.21,1.64l2.48,3.28l2.1,3.56
		c0.76,1.19,1.46,2.38,2.1,3.68l1.84,3.84l0.95,1.92c0.26,0.68,0.51,1.35,0.71,2.03l1.47,4.06c0.26,0.68,0.45,1.35,0.64,2.08
		l0.52,2.13c0.32,1.46,0.77,2.81,0.98,4.26l0.6,4.42c0.13,0.73,0.2,1.45,0.33,2.18l0.09,2.22l0.18,4.51
		c-0.1,1.43-0.2,2.98-0.25,4.54l-0.15,2.27c-0.05,0.78-0.21,1.43-0.27,2.26l-0.66,4.51c-0.28,1.42-0.74,2.95-1.08,4.49
		c-0.74,3.01-1.72,5.94-2.87,8.8c-0.57,1.4-1.27,2.85-1.97,4.25l-0.99,2.15c-0.35,0.7-0.75,1.39-1.16,2.02l-2.38,4.1
		c-0.87,1.38-1.86,2.58-2.78,3.89l-1.39,1.95c-0.46,0.63-1.04,1.19-1.56,1.81l-3.12,3.51c-1.16,1.12-2.31,2.18-3.46,3.25l-1.73,1.62
		c-0.57,0.5-1.26,0.94-1.84,1.44l-3.73,2.81c-1.26,0.87-2.63,1.62-3.95,2.44c-2.63,1.62-5.37,3-8.16,4.25
		c-1.36,0.63-2.78,1.2-4.25,1.64c-1.42,0.51-2.83,1.01-4.31,1.51l-4.4,1.09l-2.2,0.51c-0.73,0.13-1.46,0.2-2.19,0.34l-4.43,0.6
		c-1.46,0.2-2.96,0.16-4.4,0.25l-2.17,0.09l-1.09,0.05l-1.14-0.08l-4.37-0.29c-1.44-0.09-2.87-0.25-4.29-0.52l-4.22-0.64
		c-1.36-0.33-2.72-0.66-4.07-1.05c-1.36-0.27-2.72-0.66-4.01-1.17c-2.65-0.84-5.16-1.84-7.67-2.97l-3.67-1.68
		c-1.16-0.68-2.31-1.35-3.47-2.03c-8.78-5.2-16.3-12.19-22.17-20.49c-2.63-3.83-5-7.89-6.93-12.16c-0.82-2.1-1.76-4.14-2.41-6.22
		c-0.35-1.04-0.7-2.09-0.99-3.13l-0.81-3.11c-3.33-13.9-2.47-28.48,2.52-41.94c1.75-4.56,3.84-8.92,6.41-13.07l-0.01,0.12
		L160.2,250.79l7.22,13.2l0,0.06c-2.5,4.15-4.6,8.51-6.23,13.08c-4.86,13.35-5.66,27.87-2.32,41.65l0.82,3.05
		c0.29,1.04,0.65,2.02,1,3.07c0.64,2.08,1.59,4.06,2.41,6.16c1.94,4.21,4.26,8.2,6.88,12.04c5.81,8.25,13.34,15.17,22.07,20.31
		c1.16,0.68,2.25,1.35,3.41,1.97c1.16,0.68,2.45,1.12,3.67,1.69c2.45,1.12,5.02,2.13,7.61,2.97c1.29,0.51,2.58,0.89,3.94,1.22
		c1.36,0.33,2.72,0.66,4.08,0.99c1.36,0.33,2.79,0.43,4.16,0.64c1.36,0.27,2.79,0.43,4.23,0.46l5.38,0.36l1.08-0.05l2.17-0.09
		c1.45-0.08,2.95-0.04,4.4-0.25c1.46-0.2,2.97-0.4,4.37-0.61c0.73-0.13,1.46-0.2,2.19-0.33l2.14-0.52c1.46-0.32,2.87-0.71,4.34-1.03
		c1.47-0.38,2.83-1.01,4.24-1.46c1.47-0.44,2.83-1.01,4.19-1.64c2.78-1.19,5.52-2.63,8.09-4.2c1.26-0.81,2.63-1.56,3.89-2.44
		l3.73-2.75c0.63-0.5,1.26-0.94,1.84-1.44l1.73-1.56c1.15-1.06,2.3-2.12,3.46-3.19l3.18-3.51c0.52-0.57,1.04-1.13,1.56-1.75
		l1.39-1.89c0.93-1.26,1.91-2.51,2.72-3.84l2.37-4.04c0.4-0.63,0.81-1.33,1.16-2.02l0.98-2.09c0.64-1.4,1.39-2.85,1.91-4.25
		c1.09-2.87,2.07-5.8,2.81-8.75c0.34-1.42,0.8-2.95,1.08-4.43l0.66-4.51c0.05-0.72,0.28-1.42,0.27-2.26l0.15-2.27
		c0.1-1.43,0.2-2.99,0.24-4.48l-0.19-4.39l-0.09-2.22l-0.28-2.18l-0.61-4.3c-0.26-1.46-0.65-2.86-0.98-4.2l-0.52-2.13
		c-0.13-0.73-0.33-1.4-0.58-2.08l-1.41-4.05c-0.26-0.68-0.45-1.35-0.71-1.97l-0.89-1.92l-1.79-3.78c-0.58-1.24-1.4-2.43-2.1-3.62
		l-2.28-3.63l-2.48-3.28l-1.21-1.64l-0.61-0.82l-0.67-0.76l-2.75-2.94l-1.34-1.47l-1.47-1.3c-14.14-13.12-32.9-20.01-52.12-19.26
		c-1.09,0.05-2.11,0.1-3.13,0.15c-1.03,0.05-2,0.29-3.03,0.4l-2.97,0.4l-1.46,0.2l-1.46,0.32c-1.89,0.47-3.73,0.95-5.56,1.37
		l-5.05,1.82c-1.66,0.55-3.21,1.29-4.76,2.02c-1.49,0.74-3.04,1.36-4.41,2.16c-2.62,1.44-5.19,3.07-7.65,4.83
		c-3.98,2.85-7.62,6.09-10.93,9.71l-0.06,0C165.48,251.8,161.09,251.03,160.2,250.79z"/>
	<path class="st11" d="M267.8,320.77l0.42,13.99l22.83-16l11.31,3.9c0,0-14.3,23.84-24.61,32.85c-10.31,9.01-15.63,9.95-19.1,9.74
		c-4.91-0.22-6.55-6.39-6.55-6.39l1.12-34.59L267.8,320.77z"/>
	<path class="st12" d="M268.19,334.33c-0.82,1.01-1.4,2.09-1.76,3.32c-0.53,1.15-0.83,2.39-0.83,3.65c0.53-1.15,0.94-2.32,1.29-3.49
		C267.36,336.72,267.83,335.56,268.19,334.33z"/>
	<path class="st0" d="M296.46,283.91l15.87,1.5c2.19,0.33,3.74,2.4,3.42,4.59c-0.03,0.3-0.11,0.53-0.2,0.82l-18.94,29.6
		c-0.71,1.14-2.04,1.79-3.41,1.66l-19.39-1.83c-1.53-0.32-2.48-1.8-2.15-3.33c0.09-0.35,0.25-0.7,0.39-0.98l18.35-29.05
		C291.68,284.79,294.02,283.62,296.46,283.91z"/>
	<path class="st4" d="M297.36,285.86l15.87,1.5c1.49,0.14,2.57,1.45,2.43,2.94c-0.04,0.42-0.2,0.82-0.41,1.16l-18.52,28.92
		c-0.71,1.14-2.04,1.79-3.41,1.66l-19.15-1.81c-0.89-0.08-1.55-0.81-1.46-1.7c0.02-0.24,0.11-0.53,0.25-0.76l18.29-29.06
		C292.58,286.73,294.92,285.57,297.36,285.86z"/>
	<path class="st11" d="M297.46,298.74l9.3,4.79l1.35,8.01l-5.76,11.18l-17.41,0.82l5.5-4.65l-0.23-4.53c0,0-4.64-1.88-4.68-2.67
		c-0.05-0.78,0.9-3.1,1.62-3.15c1.93,0.6,3.78,1.38,5.56,2.27c0,0-5.46-5.21-5.21-5.97c0.25-0.76,1.03-2.61,2.25-2.73
		c1.22-0.12,10.33,5.31,10.33,5.31l1.22,3.66l1.91-5.53C303.19,305.54,295.01,302.36,297.46,298.74z"/>
	<path class="st12" d="M294.53,316.86c0,0,0.27-0.33,0.39-0.92c0.2-0.82,0.16-1.67-0.07-2.47c-0.22-0.8-0.63-1.56-1.18-2.16
		c-0.44-0.46-0.78-0.68-0.84-0.62c0.64,0.9,1.15,1.85,1.53,2.91C294.62,314.65,294.63,315.79,294.53,316.86z"/>
	<path class="st12" d="M299.28,315.63c-0.1-0.85-0.14-1.7-0.18-2.54c0.03-0.96,0-1.92-0.21-2.85c-0.13-0.55-0.38-1.06-0.76-1.52
		c-0.44-0.46-0.94-0.87-1.51-1.17c-2.25-1.05-4.22-1.84-5.71-2.58c-0.81-0.38-1.62-0.69-2.44-0.89c0.74,0.49,1.48,0.92,2.29,1.24
		c1.38,0.73,3.46,1.65,5.64,2.7c0.52,0.23,0.97,0.57,1.35,1.03c0.32,0.39,0.58,0.9,0.65,1.38c0.21,0.92,0.31,1.83,0.34,2.74
		C298.72,314.01,298.88,314.87,299.28,315.63z"/>
	<path class="st12" d="M301.66,314.05c0.12,0.01,0.2-0.88,0.18-1.91c0-0.66-0.12-1.27-0.36-1.9
		C301.18,311.54,301.29,312.87,301.66,314.05z"/>
	<path class="st1" d="M301.73,294.28c1.12,0.11,2.12-0.72,2.22-1.84c0.11-1.12-0.72-2.11-1.84-2.22c-1.12-0.11-2.12,0.72-2.22,1.84
		C299.79,293.18,300.61,294.17,301.73,294.28z"/>
	<path class="st13" d="M229.21,283.32c3.55-8.26,11.18-16.26,18.33-12.4c7.96,4.24,9.87,8.87,13.75,16.15
		c3.88,7.28,5.89,15.29,7.96,23.3c0.78,3.14,5.08,17.5,3.15,20.08c-1.66,2.25-17.42,18.68-20.18,19.14
		c-7.09,1.19-5.02-24.47-12.18-23.82c-2.85,0.27-6,0.39-8.37-1.27c-2.99-2.09-3.56-6.23-3.88-9.81c-1.14-12.73-2.27-25.53-3.4-38.32
		"/>
	<path class="st13" d="M238.51,266.58l10.47,5.74c5.14,4.88,5.98,12.41,5.14,19.43l-1.35,58.5l-1.55,20.12
		c0,0-33.81,14.42-67.58-11.56l7.47-15.29l-7.27-38.81c-0.25-5.56,0.36-17.04,2.3-22.33c5.02-13.59,15.32-16.77,25.72-18.61
		c0,0,9.39,9.49,19.41,8.63C231.21,272.38,237.29,272.36,238.51,266.58z"/>
	<path class="st14" d="M247.53,331.29l-21.51,25.57c-2.78,3.34-5.7,6.8-9.62,8.71c-5.81,2.88-12.79,2.16-17.88-1.87
		c-4.92-4.01-8.68-13.81-6.9-19.9c0.19-0.7,2.57,0.84,2.57,0.84c0.97-0.69,2.24-0.81,3.28-0.29c1.03,0.52,2.06,1.16,2.96,1.84
		c5.61,3.72,13.29,2.7,19.25-0.52c5.91-3.23,10.55-8.38,15.28-13.17c1.62-1.89,3.69-3.38,6.06-4.18c2.41-0.61,5.45,0.34,6.24,2.76"
		/>
	<path class="st11" d="M215.51,322.37l1.06,6.6l35.46-21l11.57-13.46c1.55-1.78,3.71-2.96,6.08-3.15c2.49-0.25,5.01,0.47,6.9,2.1
		l8.79,7.57c0,0-0.72,5.04-2.95,3.81c-2.17-1.23-6.58-4.23-6.58-4.23l-2.41,12.1l-5.99,3.52l-6.02,3.82l-40.94,33.59
		c-7.18,5.88-17.73,4.82-23.61-2.35c-1.13-1.37-2.01-2.9-2.64-4.52l-4.05-16.26L215.51,322.37z"/>
	<path class="st12" d="M217.43,328.15c0,0-0.67,0.06-1.45,0.71c-1.04,0.86-1.81,1.99-2.3,3.27c-0.42,1.22-0.66,2.52-0.73,3.84
		c-0.05,0.54-0.04,1.08,0.03,1.63c0.17-0.53,0.28-1.06,0.33-1.59c0.18-1.25,0.42-2.55,0.83-3.71c0.42-1.22,1.12-2.3,2.05-3.17
		C216.98,328.46,217.48,328.21,217.43,328.15z"/>
	<path class="st12" d="M275.78,301.38c0,0-0.08-0.43-0.38-1.06c-0.46-0.83-1.12-1.49-1.92-1.93c-0.87-0.38-1.9-0.3-2.74,0.28
		c-0.59,0.49-0.63,0.96-0.57,0.97c0.06,0.01,0.22-0.4,0.79-0.71c0.7-0.35,1.54-0.4,2.3-0.08c0.75,0.37,1.35,0.97,1.83,1.62
		C275.5,301.05,275.71,301.43,275.78,301.38z"/>
	<path class="st12" d="M269.56,304.04l0.82-0.34c0.63-0.3,1.3-0.42,1.96-0.36c0.66,0.06,1.3,0.3,1.86,0.72
		c0.45,0.28,0.67,0.54,0.74,0.49c0.07-0.05-0.08-0.37-0.53-0.77c-0.55-0.53-1.24-0.84-2.02-0.91c-0.78-0.07-1.52,0.1-2.16,0.52
		C269.71,303.75,269.51,304.03,269.56,304.04z"/>
	<path class="st13" d="M207.92,264.77c-7.75,2.39-15.82,5-21.54,10.71c-5.72,5.71-8.45,14.23-8.87,22.43
		c-0.42,8.2-1.15,15.89,0.44,23.91c0.61,3.12,1.92,10.83,3.21,14.37c1.55,3.99,10.22,8.96,14.53,9.25
		c7.18,0.5,11.85-12.59,18.59-15.08c2.68-1.01,7.26-6.05,8.64-8.56c1.75-3.2-2.01-9.87-3.25-13.3l-13.43-36.03"/>
	<path class="st4" d="M215.78,329.01c0.08-0.23,0.16-0.41,0.23-0.58c0.29-0.51,0.53-1.15,0.65-1.74c0.15-0.95-0.18-1.88-0.78-2.6
		c-0.88-0.87-2.16-1.35-3.38-1.16l-0.3-0.03l0.03-0.3c-0.16-2.72-0.81-5.37-1.97-7.82c-1.34-2.95-3.33-5.55-5.83-7.65
		c-2.8-2.19-5.96-3.81-9.35-4.91c-2.74-0.92-5.63-1.61-8.47-2.06c-2.43-0.41-4.46-0.54-5.84-0.67c-0.72-0.01-1.44-0.08-2.15-0.2
		c0.73-0.11,1.46-0.16,2.18-0.09c1.99,0.01,3.95,0.19,5.92,0.44c2.91,0.4,5.8,1.03,8.6,1.96c3.51,1.05,6.72,2.74,9.58,5
		c2.63,2.11,4.66,4.83,6.05,7.91c1.14,2.57,1.79,5.28,1.88,8.11l-0.28-0.27c1.39-0.11,2.79,0.38,3.78,1.44
		c0.7,0.85,0.96,1.95,0.74,3.02c-0.18,0.64-0.42,1.22-0.77,1.73C215.91,328.9,215.77,329.07,215.78,329.01z"/>
	<path class="st4" d="M199.3,333.29c3.67-4.46,8.28-8,13.51-10.39c0.1,0.19-3.16,2.17-6.92,5
		C202.13,330.79,199.41,333.48,199.3,333.29z"/>
	<path class="st15" d="M212.49,322.45c-3.08,0.79-6.1,2.07-8.84,3.67c-2.81,1.66-4.86,4.29-5.76,7.39l2.98-2.24
		c3.9-3.06,8.02-5.86,12.35-8.33"/>
	<path class="st4" d="M252.8,306.84c0.09-0.95,0.36-1.89,0.8-2.75c0.92-2.14,1.96-4.14,3.28-6.06c2.9-4.54,6.03-7.67,6.25-7.47
		c-0.5,0.8-1.05,1.58-1.66,2.31c-1.03,1.35-2.49,3.37-3.9,5.58c-1.27,1.92-2.35,3.87-3.39,5.87
		C253.68,305.18,253.3,306.05,252.8,306.84z"/>
	<path class="st4" d="M251.6,365.77c-0.07-0.49-0.14-1.03-0.09-1.57c-0.02-1.02,0.05-2.46,0.11-4.32c0.17-3.65,0.46-8.62,0.98-14.16
		c0.52-5.48,1-10.49,1.52-14.11c0.17-1.79,0.43-3.27,0.58-4.27c0.05-0.54,0.16-1.07,0.33-1.53c0.07,0.55,0.02,1.08-0.03,1.56
		l-1.74,18.35c-0.51,5.36-0.86,10.32-1.22,14.08l-0.41,4.29C251.71,364.7,251.65,365.24,251.6,365.77z"/>
	<path class="st3" d="M244.23,302.06c-0.24-1.29-0.42-2.56-0.47-3.89c-0.18-1.28-0.23-2.61-0.23-3.93c0.24,1.28,0.42,2.56,0.47,3.89
		C244.18,299.41,244.23,300.74,244.23,302.06z"/>
	<path class="st3" d="M247.05,297.1c-0.94,0.39-1.99,0.71-3.04,0.92c-0.99,0.27-2.03,0.47-3.06,0.55c0.99-0.33,1.98-0.59,3.02-0.8
		C244.96,297.5,246.01,297.24,247.05,297.1z"/>
	<path class="st3" d="M242.35,300.92c0.39-0.98,0.85-1.96,1.42-2.87c0.45-0.98,1.02-1.89,1.59-2.8c-0.39,0.99-0.85,1.96-1.36,2.88
		C243.48,299.11,242.97,300.08,242.35,300.92z"/>
	<path class="st3" d="M246.71,300.61c-1.86-1.38-3.57-2.92-5.16-4.58c0.96,0.63,1.86,1.38,2.74,2.18
		C245.18,298.96,245.95,299.76,246.71,300.61z"/>
	<path class="st3" d="M248.64,347.51c-0.24-1.28-0.42-2.56-0.47-3.89c-0.18-1.28-0.23-2.61-0.23-3.93c0.24,1.29,0.42,2.56,0.47,3.89
		C248.59,344.92,248.65,346.19,248.64,347.51z"/>
	<path class="st3" d="M251.45,342.67c-1.93,0.72-3.97,1.25-6.03,1.41c0.99-0.33,1.98-0.59,3.02-0.8
		C249.43,343.02,250.41,342.81,251.45,342.67z"/>
	<path class="st3" d="M246.69,346.49c0.39-0.98,0.85-1.96,1.36-2.88c0.45-0.98,1.02-1.89,1.59-2.8c-0.39,0.99-0.85,1.96-1.36,2.88
		C247.89,344.68,247.32,345.59,246.69,346.49z"/>
	<path class="st3" d="M251.12,346.13c-0.96-0.69-1.86-1.38-2.68-2.18c-0.89-0.75-1.72-1.55-2.48-2.4c0.96,0.69,1.86,1.38,2.74,2.18
		C249.53,344.53,250.36,345.27,251.12,346.13z"/>
	<path class="st3" d="M262.67,331.05c-0.24-1.29-0.42-2.57-0.47-3.89c-0.18-1.28-0.23-2.61-0.23-3.93c0.24,1.29,0.42,2.57,0.47,3.89
		C262.61,328.45,262.67,329.78,262.67,331.05z"/>
	<path class="st3" d="M265.54,326.14c-1,0.39-1.99,0.71-3.04,0.92c-0.99,0.27-2.03,0.47-3.06,0.49c1-0.33,1.98-0.6,3.02-0.8
		C263.46,326.49,264.5,326.29,265.54,326.14z"/>
	<path class="st3" d="M260.78,329.97c0.85-1.96,1.87-3.85,3.01-5.67c-0.4,0.99-0.85,1.96-1.36,2.88
		C261.92,328.15,261.41,329.06,260.78,329.97z"/>
	<path class="st4" d="M223.73,285.79c-0.02,0.17-0.05,0.35-0.1,0.52c-0.04,0.22-0.1,0.43-0.17,0.64c-0.08,0.28-0.19,0.55-0.32,0.81
		c-0.79,1.7-2.07,3.12-3.67,4.09c-1.18,0.74-2.5,1.22-3.87,1.42c-1.38,0.19-2.78,0.09-4.11-0.3c-1.65-0.48-3.18-1.29-4.51-2.39
		c-1.32-1.09-2.41-2.45-3.19-3.98c-1.49-3.07-1.93-6.55-1.24-9.89c0.54-2.71,1.67-5.27,3.3-7.51c1.08-1.5,2.32-2.88,3.71-4.11
		c0.49-0.44,0.89-0.75,1.16-0.97c0.13-0.12,0.27-0.22,0.43-0.3c-0.12,0.13-0.25,0.25-0.39,0.36c-0.26,0.23-0.64,0.56-1.11,1
		c-1.34,1.26-2.55,2.65-3.61,4.15c-1.58,2.22-2.66,4.75-3.19,7.42c-0.66,3.28-0.23,6.68,1.23,9.68c0.76,1.47,1.8,2.78,3.08,3.84
		c1.27,1.06,2.75,1.85,4.33,2.33c1.39,0.41,2.85,0.5,4.27,0.28c1.24-0.21,2.44-0.65,3.52-1.3c1.59-0.93,2.87-2.29,3.7-3.93
		C223.27,287.04,223.52,286.42,223.73,285.79z"/>
	<path class="st4" d="M236.87,267.88c0.13,0.06,0.26,0.14,0.37,0.23c0.24,0.16,0.58,0.42,1,0.75c1.18,1.01,2.2,2.18,3.04,3.48
		c1.26,1.93,2.04,4.14,2.29,6.43c0.28,2.85-0.44,5.72-2.03,8.11c-1.53,2.42-3.97,4.14-6.76,4.78c-2.29,0.44-4.66,0.09-6.73-0.98
		c-1.39-0.71-2.58-1.76-3.45-3.05l-0.37-0.63c-0.1-0.18-0.16-0.35-0.22-0.48c-0.07-0.13-0.12-0.27-0.16-0.41
		c0.09,0.12,0.16,0.24,0.22,0.38c0.07,0.12,0.14,0.29,0.25,0.46l0.4,0.6c0.9,1.24,2.08,2.24,3.45,2.91
		c2.03,1.01,4.33,1.32,6.56,0.89c2.7-0.63,5.05-2.29,6.54-4.63c1.54-2.32,2.24-5.08,2-7.85c-0.22-2.25-0.97-4.42-2.18-6.34
		c-0.82-1.29-1.81-2.47-2.95-3.51C237.34,268.26,236.85,267.91,236.87,267.88z"/>
	<path class="st2" d="M258.81,208.5c10.22,3.31,8.91,17.9,6.01,25.63c-1.37,3.67-3.65,7.43-2.65,11.21c0.7,2.69,2.96,4.8,3.41,7.54
		c0.54,3.33-1.72,6.37-3.55,9.19c-1.84,2.82-3.35,6.61-1.45,9.4c-6.3-0.1-12.65-0.2-18.8-1.57c-6.15-1.37-12.16-4.1-16.42-8.73"/>
	<path class="st2" d="M258.52,238.25c11.15-13.74,4.53-25.86-0.55-30.96c-3.03-3.04-7.19-4.66-11.29-5.92
		c-4.03-1.34-8.23-2.1-12.47-2.28c-4.26-0.17-8.49,0.87-12.19,2.99c-6.43,3.91-9.75,11.44-11.32,18.79
		c-1.86,8.7-1.72,17.7,0.4,26.34c0.19,1.13,0.68,2.18,1.43,3.05c0.81,0.79,2.25,1.07,3.08,0.29"/>
	<path class="st11" d="M220.62,285.57c-7.16-1.46-11.6-9.17-9.36-20.2l11.48-56.02l-0.79,3.86c0.29-1.11,0.98-2.08,1.94-2.7
		c0.97-0.62,2.13-0.86,3.26-0.67l22.43,3.78c1.83,0.31,3.58,0.98,5.15,1.99c1.56,1,2.91,2.31,3.95,3.85
		c1.04,1.53,1.76,3.27,2.12,5.09c0.35,1.82,0.34,3.7-0.05,5.51c-1.81,8.51-4.36,18.83-7.1,24.79c-5.51,12-15.58,10.91-15.58,10.91
		l-1.77,9.32c-0.33,1.72-0.99,3.37-1.96,4.83c-0.97,1.47-2.21,2.72-3.67,3.7c-1.46,0.98-3.1,1.66-4.82,1.99
		C224.11,285.92,222.34,285.92,220.62,285.57z"/>
	<path class="st4" d="M242.6,244.9c0.01-0.11,1.15,0.01,2.95,0.28c0.46,0.08,0.9,0.09,1.06-0.17c0.16-0.45,0.19-0.94,0.07-1.4
		c-0.12-1.19-0.24-2.43-0.37-3.73c-0.48-5.29-0.69-9.62-0.48-9.63c0.21-0.01,0.78,4.26,1.25,9.56c0.1,1.32,0.2,2.57,0.3,3.73
		c0.13,0.61,0.04,1.25-0.26,1.8c-0.11,0.14-0.25,0.25-0.4,0.33c-0.16,0.08-0.33,0.12-0.51,0.12c-0.26,0-0.53-0.04-0.78-0.11
		C243.67,245.29,242.57,245,242.6,244.9z"/>
	<path class="st12" d="M238.06,265.72c-5.93-1.56-11.31-4.74-15.54-9.18c0,0,2.08,9.94,14.97,12.27L238.06,265.72z"/>
	<path class="st12" d="M240.7,248.86c-0.22-0.51-0.56-0.95-0.99-1.29c-0.43-0.34-0.94-0.56-1.49-0.65c-0.39-0.07-0.8-0.06-1.19,0.02
		c-0.39,0.09-0.76,0.25-1.08,0.49c-0.31,0.22-0.55,0.54-0.68,0.9c-0.13,0.36-0.14,0.76-0.03,1.13c0.19,0.39,0.49,0.71,0.87,0.93
		c0.38,0.21,0.81,0.31,1.24,0.28c0.9-0.06,1.78-0.3,2.58-0.7c0.23-0.08,0.45-0.21,0.64-0.37c0.09-0.08,0.15-0.18,0.18-0.29
		c0.03-0.11,0.03-0.23,0-0.35"/>
	<path class="st2" d="M241.53,227.49c-0.3,0.42-1.98-0.29-4.07-0.61c-2.1-0.32-3.92-0.23-4.05-0.72c-0.06-0.24,0.35-0.62,1.13-0.87
		c1.04-0.31,2.14-0.38,3.21-0.21c1.07,0.18,2.09,0.59,2.98,1.22C241.39,226.8,241.66,227.28,241.53,227.49z"/>
	<path class="st2" d="M257.79,229.54c-0.41,0.31-1.49-0.44-2.92-0.85c-1.43-0.42-2.73-0.48-2.89-0.97c-0.06-0.23,0.24-0.57,0.87-0.8
		c0.84-0.26,1.74-0.25,2.57,0.02c0.84,0.25,1.58,0.75,2.12,1.45C257.93,228.93,257.97,229.41,257.79,229.54z"/>
	<path class="st2" d="M256.78,206.15c-10.28-10.19-24.68-9.03-37.25-1.85c-2.78,1.58-5.44,3.61-8.61,4.04
		c-3.42,0.46-7.43-0.87-10.02,1.41c-3.02,2.67-1.42,8.05-3.97,11.18c-2.34,2.89-7.1,2.61-9.66,5.29c-2,2.12-2.01,5.35-2.15,8.27
		c-0.14,2.91-0.81,6.27-3.4,7.61l23.45,17.17c1.03,0.8,2.27,1.29,3.57,1.41c3.91,0.28,5.15-3.08,5.59-6.03
		c0.33-2.2,0.49-4.59,1.91-6.29c1.69-2.01,4.75-2.5,6.34-4.58c2.84-3.67-0.65-9.29,1.13-13.57c1.13-2.69,4.21-5.3,7.11-5.71
		c2.9-0.41,6.81,0.14,8.88-0.18c6.56-1.01,13.14-3.31,17.53-8.88c1.08-1.34,1.63-3.02,1.55-4.73c-0.08-1.71-0.78-3.34-1.98-4.57
		L256.78,206.15z"/>
	<path class="st3" d="M257.32,206.77c-0.07-0.03-0.14-0.07-0.2-0.12c-0.18-0.13-0.38-0.25-0.58-0.35c-0.79-0.39-1.68-0.54-2.55-0.44
		c-1.38,0.2-2.71,0.62-3.95,1.25c-1.67,0.8-3.29,1.71-4.85,2.71c-0.93,0.56-1.91,1.04-2.93,1.41c-1.11,0.39-2.27,0.65-3.44,0.76
		c-2.58,0.16-5.17,0.09-7.73-0.19c-2.7-0.2-5.59-0.34-8.43,0.42c-2.94,0.81-5.6,2.42-7.67,4.66c-1.05,1.12-1.92,2.39-2.6,3.77
		c-0.67,1.36-1.18,2.78-1.75,4.15c-0.52,1.37-1.22,2.67-2.08,3.86c-0.86,1.15-2.04,2.02-3.39,2.5c-1.28,0.38-2.61,0.6-3.95,0.64
		c-1.23,0.04-2.45,0.19-3.65,0.45c-1.07,0.28-2.07,0.78-2.93,1.47c-0.86,0.69-1.57,1.56-2.08,2.54c-0.94,1.83-0.9,3.75-1.09,5.36
		c-0.07,0.76-0.22,1.52-0.45,2.25c-0.21,0.61-0.52,1.18-0.92,1.7c-0.52,0.74-1.29,1.26-2.17,1.49c-0.13,0.03-0.26,0.05-0.4,0.05
		c-0.1,0.01-0.19,0-0.29-0.03l-0.23-0.02c0.31,0,0.61-0.03,0.91-0.1c0.86-0.24,1.61-0.77,2.11-1.5c0.38-0.51,0.67-1.07,0.87-1.67
		c0.21-0.72,0.35-1.46,0.41-2.21c0.08-0.81,0.12-1.68,0.25-2.6c0.11-0.99,0.39-1.95,0.83-2.84c0.52-1.02,1.24-1.92,2.13-2.64
		c0.89-0.72,1.92-1.25,3.03-1.54c1.23-0.28,2.48-0.44,3.74-0.49c1.31-0.05,2.62-0.26,3.87-0.63c1.29-0.46,2.42-1.3,3.24-2.4
		c0.84-1.17,1.52-2.45,2.03-3.8c0.56-1.36,1.07-2.79,1.75-4.16c0.69-1.41,1.58-2.72,2.65-3.86c2.11-2.28,4.81-3.92,7.81-4.75
		c2.91-0.78,5.84-0.62,8.54-0.41c2.55,0.29,5.12,0.37,7.69,0.22c1.15-0.1,2.29-0.34,3.38-0.72c1-0.37,1.97-0.83,2.89-1.37
		c3.49-2.16,6.55-3.69,8.91-3.88c0.89-0.09,1.79,0.09,2.58,0.51c0.2,0.11,0.4,0.24,0.57,0.39L257.32,206.77z"/>
	<path class="st4" d="M257.97,207.29c0,0-0.29-0.11-0.84-0.19c-0.81-0.11-1.63,0.08-2.31,0.53c-1.05,0.74-2,1.63-2.81,2.63
		c-1.15,1.3-2.49,2.41-3.98,3.28c-3.31,1.96-7.95,3.01-13,2.71c-1.26-0.04-2.55-0.11-3.87-0.09c-1.34-0.02-2.68,0.13-3.98,0.44
		c-0.66,0.17-1.3,0.4-1.91,0.7c-0.61,0.31-1.17,0.7-1.69,1.15c-1.01,1.01-1.81,2.22-2.34,3.54c-0.6,1.31-1.05,2.67-1.54,4
		c-0.47,1.32-1.02,2.61-1.64,3.87c-0.6,1.22-1.32,2.38-2.15,3.45c-0.81,1.03-1.78,1.91-2.87,2.62c-1.07,0.63-2.22,1.12-3.42,1.45
		c-1.11,0.3-2.15,0.78-3.09,1.44c-0.83,0.67-1.5,1.52-1.95,2.48c-0.43,0.89-0.77,1.82-1.02,2.78c-0.37,1.68-0.89,3.33-1.54,4.92
		c-0.53,1.21-1.38,2.24-2.46,2.99c-0.68,0.47-1.48,0.75-2.32,0.81c-0.29,0.02-0.57-0.01-0.85-0.08c0,0,0.29,0.03,0.85-0.01
		c0.81-0.08,1.59-0.38,2.25-0.86c1.05-0.75,1.87-1.78,2.37-2.96c0.63-1.59,1.12-3.23,1.47-4.9c0.25-0.97,0.59-1.92,1.02-2.84
		c0.46-1,1.15-1.89,2.01-2.58c1.85-1.46,4.43-1.55,6.51-2.93c1.07-0.69,2.02-1.56,2.81-2.56c0.82-1.05,1.53-2.19,2.11-3.39
		c0.61-1.25,1.15-2.53,1.62-3.83c0.49-1.33,0.91-2.7,1.55-4.03c0.57-1.35,1.41-2.56,2.45-3.59c0.54-0.48,1.13-0.89,1.76-1.23
		c0.63-0.31,1.3-0.56,1.98-0.73c1.33-0.31,2.68-0.46,4.05-0.44c1.31-0.02,2.62,0.06,3.88,0.1c5.02,0.28,9.59-0.72,12.88-2.63
		c3.29-1.91,4.91-4.78,6.84-5.82c0.71-0.46,1.56-0.63,2.39-0.48C257.46,207.08,257.73,207.17,257.97,207.29z"/>
	<path class="st3" d="M200.44,256.35c0.24,0.15,0.49,0.28,0.76,0.37c0.79,0.21,1.63,0.12,2.35-0.26c0.53-0.25,0.99-0.61,1.36-1.07
		c0.43-0.55,0.76-1.16,0.99-1.81c0.53-1.41,0.64-3.15,1.13-5.01c0.25-0.99,0.72-1.91,1.38-2.69c0.75-0.81,1.69-1.44,2.72-1.83
		c1.04-0.44,2.16-0.77,3.28-1.17c1.15-0.37,2.23-0.94,3.18-1.7c0.93-0.86,1.62-1.96,2-3.17c0.4-1.27,0.66-2.59,0.76-3.92
		c0.13-1.37,0.22-2.77,0.49-4.17c0.23-1.45,0.78-2.83,1.61-4.04c0.88-1.19,2.03-2.14,3.36-2.79c1.27-0.63,2.62-1.07,4.02-1.31
		c2.74-0.48,5.41-0.34,7.92-0.38c2.38,0.06,4.75-0.26,7.03-0.93c4.88-1.53,9.03-4.82,11.64-9.22c0.25-0.4,0.48-0.82,0.68-1.25
		c0.17-0.3,0.31-0.62,0.44-0.94c0.11-0.24,0.19-0.43,0.25-0.58c0.06-0.15,0.1-0.2,0.1-0.2c-0.01,0.07-0.03,0.14-0.07,0.21
		c-0.05,0.15-0.13,0.35-0.22,0.6c-0.12,0.33-0.26,0.65-0.41,0.96c-0.18,0.37-0.38,0.8-0.65,1.25c-2.58,4.49-6.74,7.85-11.67,9.43
		c-2.31,0.69-4.71,1.02-7.12,0.97c-2.52,0.05-5.18-0.09-7.87,0.4c-1.36,0.24-2.68,0.67-3.92,1.28c-1.27,0.62-2.38,1.54-3.22,2.67
		c-0.8,1.17-1.33,2.51-1.55,3.91c-0.26,1.38-0.35,2.77-0.49,4.14c-0.11,1.36-0.37,2.7-0.79,3.99c-0.4,1.26-1.12,2.4-2.1,3.3
		c-0.98,0.78-2.09,1.38-3.29,1.75c-1.13,0.4-2.25,0.71-3.27,1.15c-1,0.36-1.89,0.95-2.63,1.72c-0.64,0.74-1.1,1.63-1.34,2.58
		c-0.51,1.81-0.65,3.57-1.2,5c-0.24,0.67-0.59,1.31-1.04,1.87c-0.39,0.46-0.87,0.83-1.42,1.09c-0.75,0.37-1.62,0.44-2.43,0.2
		C200.91,256.67,200.66,256.53,200.44,256.35z"/>
	<path class="st4" d="M183.39,243c0,0,0.3-0.15,0.81-0.51c0.74-0.54,1.38-1.21,1.89-1.97c0.79-1.22,1.4-2.55,1.81-3.94
		c0.53-1.61,0.91-3.52,1.69-5.53c0.4-1.06,0.94-2.07,1.6-3c0.73-1.02,1.71-1.83,2.85-2.35c1.23-0.48,2.52-0.8,3.83-0.95
		c1.36-0.14,2.69-0.51,3.93-1.09c1.24-0.72,2.26-1.77,2.92-3.05c0.69-1.34,1.28-2.73,1.79-4.15c0.53-1.49,1.26-2.91,2.15-4.22
		c1.01-1.31,2.34-2.34,3.86-2.99c3.06-1.36,6.34-1.51,9.35-2.03c1.47-0.23,2.91-0.62,4.3-1.15c1.33-0.56,2.64-1.18,3.91-1.87
		c2.5-1.33,4.92-2.61,7.41-3.18c2.3-0.52,4.68-0.62,7.02-0.31c1.93,0.25,3.81,0.74,5.62,1.45c0.8,0.31,1.51,0.66,2.17,0.98
		c0.66,0.32,1.25,0.66,1.74,1c0.25,0.17,0.49,0.32,0.71,0.46l0.61,0.45c0.32,0.23,0.62,0.48,0.92,0.74l0.55,0.46l0.18,0.17
		c-0.07-0.04-0.14-0.08-0.2-0.14l-0.56-0.45c-0.24-0.2-0.56-0.43-0.94-0.69l-0.61-0.43l-0.72-0.44c-0.5-0.33-1.1-0.62-1.74-0.97
		c-0.64-0.35-1.37-0.65-2.17-0.95c-1.8-0.69-3.67-1.15-5.58-1.39c-2.31-0.29-4.65-0.17-6.93,0.34c-2.44,0.58-4.84,1.85-7.33,3.19
		c-1.28,0.7-2.59,1.34-3.94,1.9c-1.42,0.56-2.9,0.96-4.41,1.2c-3.04,0.53-6.29,0.68-9.26,2.01c-1.47,0.62-2.76,1.61-3.73,2.88
		c-0.88,1.28-1.59,2.67-2.11,4.14c-0.51,1.43-1.12,2.83-1.81,4.19c-0.69,1.32-1.74,2.42-3.03,3.17c-1.27,0.6-2.64,0.97-4.04,1.11
		c-1.29,0.13-2.55,0.43-3.76,0.89c-1.09,0.49-2.04,1.26-2.75,2.22c-0.66,0.9-1.19,1.89-1.59,2.93c-0.79,1.99-1.18,3.89-1.74,5.51
		c-0.44,1.4-1.07,2.73-1.88,3.96c-0.53,0.77-1.19,1.43-1.96,1.95c-0.2,0.13-0.41,0.25-0.62,0.35
		C183.52,242.94,183.46,242.97,183.39,243z"/>
	<path class="st12" d="M237.74,235.65c0,0.03-0.27,0.22-0.8,0.34c-0.71,0.15-1.43,0.11-2.12-0.12c-0.68-0.22-1.3-0.62-1.78-1.15
		c-0.35-0.41-0.48-0.7-0.44-0.75c0.04-0.05,0.23,0.24,0.6,0.58c0.49,0.45,1.08,0.79,1.71,1c0.63,0.19,1.3,0.26,1.95,0.18
		C237.15,235.68,237.45,235.65,237.74,235.65z"/>
	<path class="st12" d="M255.21,239.83c-0.27,0.2-0.58,0.31-0.92,0.33c-0.79,0.12-1.61-0.01-2.32-0.37
		c-0.72-0.36-1.31-0.93-1.69-1.63c-0.28-0.54-0.33-0.92-0.29-0.93c0.04-0.01,0.17,0.33,0.49,0.81c0.41,0.62,0.97,1.13,1.63,1.47
		c0.67,0.32,1.41,0.47,2.15,0.43C254.84,239.89,255.19,239.78,255.21,239.83z"/>
	<path class="st12" d="M237.85,243.84c-0.04,0.09-0.52-0.05-1.09,0.03c-0.57,0.08-0.97,0.4-1.04,0.34
		c-0.07-0.06,0.28-0.56,0.98-0.67C237.4,243.42,237.91,243.77,237.85,243.84z"/>
	<path class="st12" d="M242.57,250.75c0.09-0.04,0.26,0.32,0.05,0.71c-0.21,0.39-0.6,0.45-0.62,0.36c-0.02-0.09,0.18-0.25,0.31-0.52
		C242.45,251.03,242.48,250.77,242.57,250.75z"/>
	<path class="st12" d="M235.88,254c-0.29-0.88-0.71-1.7-1.24-2.46c-0.62-0.69-1.33-1.28-2.12-1.76c0-0.04,0.33,0.03,0.81,0.25
		c0.61,0.32,1.15,0.76,1.58,1.3c0.43,0.54,0.74,1.16,0.91,1.83C235.97,253.67,235.94,254,235.88,254z"/>
	<path class="st12" d="M233.8,244.94c0-0.26,0.05-0.52,0.15-0.77c0.1-0.24,0.26-0.46,0.45-0.64c0.39-0.43,0.91-0.73,1.48-0.84
		c0.66-0.07,1.31-0.18,1.95-0.32c0.59-0.23,1.09-0.64,1.43-1.18c0.28-0.44,0.42-0.96,0.42-1.48c-0.03-0.49-0.13-0.97-0.31-1.43
		c0.35,0.39,0.54,0.9,0.52,1.43c0.04,0.58-0.1,1.15-0.39,1.65c-0.36,0.62-0.93,1.09-1.6,1.33c-0.66,0.15-1.33,0.26-2,0.31
		c-0.52,0.08-1,0.32-1.38,0.7C234.2,244.06,233.96,244.48,233.8,244.94z"/>
	<path class="st12" d="M240.24,231.21c-0.05-0.01-0.17-0.44-0.6-1c-0.55-0.74-1.36-1.23-2.27-1.38c-0.92-0.11-1.84,0.13-2.58,0.68
		c-0.57,0.42-0.81,0.82-0.86,0.79c0.12-0.39,0.37-0.73,0.71-0.97c0.37-0.33,0.81-0.57,1.29-0.71c0.48-0.14,0.98-0.18,1.47-0.11
		c0.49,0.07,0.96,0.25,1.38,0.52c0.42,0.27,0.77,0.63,1.04,1.05C240.08,230.39,240.22,230.79,240.24,231.21z"/>
	<path class="st12" d="M241.14,231.48c-0.1-0.01-0.17-0.27-0.17-0.6c0-0.33,0.06-0.6,0.18-0.59c0.12,0,0.17,0.26,0.16,0.6
		C241.31,231.22,241.24,231.48,241.14,231.48z"/>
	<path class="st12" d="M256.57,235.22c-0.05,0-0.16-0.34-0.51-0.8c-0.44-0.6-1.09-1.02-1.82-1.17c-0.73-0.15-1.49-0.04-2.14,0.33
		c-0.51,0.28-0.76,0.58-0.8,0.52s0.16-0.37,0.67-0.72c0.34-0.23,0.72-0.39,1.12-0.47c0.4-0.08,0.81-0.08,1.21,0.01
		c0.4,0.08,0.78,0.25,1.12,0.48c0.33,0.23,0.62,0.53,0.83,0.88C256.45,234.55,256.56,234.88,256.57,235.22z"/>
	<path class="st3" d="M191.38,232.23c0.06-0.25,0.16-0.49,0.29-0.72c0.37-0.65,0.89-1.2,1.51-1.62c0.98-0.65,2.09-1.1,3.25-1.32
		c1.34-0.3,2.9-0.41,4.54-0.88c1.78-0.54,3.36-1.61,4.5-3.09c1.29-1.71,2.39-3.55,3.29-5.49c1.04-2,2.2-4.17,4.08-5.87
		c0.95-0.86,2.08-1.5,3.32-1.87c1.26-0.35,2.55-0.57,3.86-0.65c1.32-0.11,2.61-0.19,3.85-0.4c1.23-0.22,2.42-0.58,3.56-1.08
		c2.13-1.01,4.21-2.12,6.23-3.35c1.86-1.12,3.87-1.96,5.98-2.49c1.85-0.4,3.74-0.51,5.62-0.32c2.71,0.31,5.37,0.92,7.93,1.83
		c0.92,0.3,1.61,0.56,2.09,0.74l0.54,0.2l0.18,0.08c-0.06,0-0.13-0.01-0.2-0.02l-0.55-0.18l-2.1-0.68
		c-2.57-0.85-5.22-1.43-7.92-1.71c-1.86-0.17-3.73-0.05-5.55,0.35c-2.07,0.54-4.05,1.38-5.88,2.49c-2.03,1.24-4.13,2.38-6.28,3.4
		c-1.17,0.51-2.39,0.88-3.64,1.11c-1.27,0.21-2.58,0.29-3.88,0.4c-1.28,0.07-2.55,0.29-3.78,0.63c-1.19,0.36-2.28,0.97-3.2,1.8
		c-1.82,1.63-2.98,3.77-4.01,5.76c-0.91,1.96-2.04,3.81-3.36,5.53c-1.18,1.51-2.81,2.61-4.65,3.14c-1.67,0.46-3.24,0.55-4.56,0.84
		c-1.14,0.2-2.24,0.62-3.22,1.24c-0.62,0.39-1.14,0.92-1.53,1.54C191.47,231.98,191.38,232.24,191.38,232.23z"/>
	<path class="st4" d="M254.65,238.74c-0.11,0.4-0.37,0.74-0.73,0.95c-0.36,0.21-0.78,0.27-1.18,0.18c-0.2-0.04-0.39-0.12-0.56-0.23
		c-0.17-0.11-0.31-0.26-0.42-0.43c-0.11-0.17-0.19-0.36-0.22-0.56c-0.04-0.2-0.03-0.41,0.01-0.6c0.11-0.4,0.37-0.74,0.73-0.95
		c0.36-0.21,0.78-0.27,1.18-0.18c0.2,0.04,0.39,0.12,0.56,0.24c0.17,0.11,0.31,0.26,0.43,0.43c0.11,0.17,0.18,0.36,0.22,0.57
		C254.7,238.34,254.69,238.54,254.65,238.74z"/>
	<path class="st4" d="M256.04,237.03c-0.24,0.15-1.17-1.05-2.82-1.51c-1.65-0.46-3.1,0.01-3.22-0.24c-0.06-0.11,0.23-0.42,0.87-0.66
		c0.86-0.29,1.78-0.31,2.65-0.06c0.86,0.24,1.62,0.75,2.18,1.45C256.09,236.55,256.16,236.96,256.04,237.03z"/>
	<path class="st4" d="M238.22,234.18c-0.11,0.4-0.37,0.74-0.73,0.95s-0.78,0.28-1.19,0.18c-0.2-0.04-0.39-0.12-0.56-0.23
		c-0.17-0.12-0.31-0.26-0.42-0.43c-0.11-0.17-0.18-0.36-0.22-0.56c-0.03-0.2-0.03-0.41,0.02-0.61c0.11-0.4,0.37-0.74,0.73-0.95
		c0.36-0.21,0.78-0.28,1.18-0.18c0.2,0.04,0.39,0.12,0.56,0.24c0.17,0.12,0.31,0.26,0.42,0.43c0.11,0.17,0.19,0.36,0.22,0.56
		C238.27,233.77,238.26,233.98,238.22,234.18z"/>
	<path class="st4" d="M239.62,232.47c-0.25,0.14-1.17-1.05-2.82-1.51c-1.66-0.46-3.1,0.02-3.22-0.24c-0.06-0.11,0.23-0.42,0.87-0.65
		c0.86-0.29,1.78-0.31,2.65-0.06c0.86,0.24,1.62,0.75,2.17,1.46C239.67,231.99,239.74,232.41,239.62,232.47z"/>
	<path class="st4" d="M236.31,244.89c0.28,0.06-0.23,1.86,0.94,3.57c1.17,1.71,3.13,2.05,3.1,2.32c-0.01,0.12-0.53,0.23-1.34,0.02
		c-1.06-0.29-1.98-0.93-2.6-1.83c-0.6-0.86-0.84-1.92-0.68-2.96C235.86,245.23,236.19,244.84,236.31,244.89z"/>
	<path class="st3" d="M265.15,329.66c-0.96-0.63-1.86-1.38-2.74-2.18c-0.89-0.75-1.67-1.48-2.43-2.33c0.96,0.63,1.86,1.38,2.74,2.18
		C263.61,328.07,264.38,328.8,265.15,329.66z"/>
	<path class="st3" d="M249.76,285.63c-0.24-1.28-0.42-2.56-0.47-3.89c-0.18-1.28-0.23-2.61-0.23-3.87c0.24,1.29,0.42,2.56,0.47,3.89
		C249.7,283.04,249.76,284.37,249.76,285.63z"/>
	<path class="st3" d="M252.57,280.72c-1,0.38-1.99,0.71-3.04,0.92c-0.99,0.27-2.03,0.47-3.06,0.49
		C248.46,281.6,250.49,281.13,252.57,280.72z"/>
	<path class="st3" d="M247.82,284.54c0.4-1.04,0.91-2.02,1.48-2.93c0.46-0.98,1.02-1.89,1.59-2.8c-0.39,0.98-0.85,1.96-1.36,2.88
		C249.07,282.74,248.5,283.65,247.82,284.54z"/>
	<path class="st3" d="M252.24,284.24c-0.96-0.63-1.86-1.38-2.74-2.18c-0.89-0.75-1.72-1.55-2.48-2.4c0.96,0.63,1.86,1.38,2.74,2.18
		C250.65,282.59,251.48,283.39,252.24,284.24z"/>
	<path class="st3" d="M230.19,315.47c-0.24-1.29-0.42-2.57-0.47-3.89c-0.18-1.28-0.23-2.61-0.23-3.87c0.24,1.29,0.42,2.56,0.47,3.89
		C230.14,312.81,230.2,314.14,230.19,315.47z"/>
	<path class="st3" d="M233.07,310.51c-1,0.39-1.99,0.71-3.04,0.92c-0.99,0.27-2.03,0.47-3.06,0.49c1-0.33,1.98-0.59,3.03-0.8
		C230.99,310.91,231.97,310.64,233.07,310.51z"/>
	<path class="st3" d="M228.31,314.33c0.85-1.96,1.87-3.79,3-5.61c-0.4,0.99-0.85,1.96-1.42,2.87
		C229.44,312.57,228.93,313.48,228.31,314.33z"/>
	<path class="st3" d="M232.68,314.02c-0.96-0.63-1.86-1.38-2.74-2.18c-0.89-0.75-1.72-1.55-2.48-2.4c0.96,0.63,1.86,1.38,2.74,2.18
		C231.09,312.36,231.92,313.17,232.68,314.02z"/>
	<path class="st3" d="M228.95,357.08c-0.24-1.29-0.42-2.56-0.47-3.89c-0.18-1.28-0.23-2.61-0.23-3.93c0.24,1.29,0.42,2.57,0.47,3.89
		C228.9,354.49,228.95,355.81,228.95,357.08z"/>
	<path class="st3" d="M231.82,352.18c-0.94,0.39-1.99,0.71-3.04,0.92c-0.99,0.27-2.03,0.47-3.06,0.55c1-0.33,1.98-0.6,3.02-0.8
		C229.74,352.58,230.79,352.32,231.82,352.18z"/>
	<path class="st3" d="M227.07,356c0.85-1.96,1.87-3.85,3.01-5.67c-0.4,0.98-0.85,1.96-1.42,2.87
		C228.2,354.18,227.69,355.09,227.07,356z"/>
	<path class="st3" d="M231.43,355.69c-0.96-0.63-1.86-1.38-2.74-2.18c-0.89-0.75-1.72-1.55-2.48-2.4c0.96,0.63,1.86,1.38,2.74,2.18
		C229.84,354.03,230.67,354.83,231.43,355.69z"/>
	<path class="st3" d="M242.24,368.68c-0.24-1.29-0.42-2.56-0.47-3.89c-0.18-1.28-0.23-2.61-0.23-3.93c0.24,1.29,0.42,2.56,0.47,3.89
		C242.18,366.09,242.24,367.35,242.24,368.68z"/>
	<path class="st3" d="M245.11,363.78c-0.94,0.39-1.99,0.71-3.04,0.92c-0.99,0.27-2.03,0.47-3.06,0.55c0.99-0.33,1.98-0.59,3.02-0.8
		C243.03,364.12,244.07,363.92,245.11,363.78z"/>
	<path class="st3" d="M240.35,367.6c0.4-0.99,0.85-1.96,1.42-2.87c0.45-0.98,1.02-1.89,1.59-2.8c-0.4,0.98-0.85,1.96-1.36,2.88
		C241.49,365.78,240.98,366.69,240.35,367.6z"/>
	<path class="st3" d="M244.72,367.29c-0.96-0.63-1.86-1.38-2.74-2.18c-0.89-0.75-1.72-1.55-2.48-2.4c0.96,0.63,1.86,1.38,2.74,2.18
		C243.13,365.63,243.96,366.43,244.72,367.29z"/>
	<path class="st3" d="M214.34,371.45c-0.24-1.28-0.42-2.56-0.47-3.89c-0.18-1.28-0.23-2.61-0.23-3.93c0.24,1.29,0.42,2.56,0.47,3.89
		C214.29,368.86,214.35,370.12,214.34,371.45z"/>
	<path class="st3" d="M217.28,366.55c-1,0.39-1.99,0.71-3.04,0.92c-0.99,0.27-2.03,0.47-3.06,0.49c1.98-0.59,4.01-1.06,6.03-1.41
		L217.28,366.55z"/>
	<path class="st3" d="M212.52,370.37c0.39-0.98,0.85-1.96,1.42-2.87c0.45-0.98,1.02-1.89,1.59-2.8c-0.4,0.99-0.85,1.96-1.36,2.88
		C213.66,368.5,213.15,369.47,212.52,370.37z"/>
	<path class="st3" d="M216.88,370.06c-0.96-0.63-1.86-1.38-2.74-2.18c-0.89-0.75-1.72-1.55-2.48-2.4c0.96,0.63,1.86,1.38,2.74,2.18
		C215.3,368.41,216.13,369.15,216.88,370.06z"/>
	<path class="st3" d="M191.87,360.84c-0.24-1.29-0.42-2.56-0.47-3.89c-0.18-1.28-0.23-2.61-0.23-3.93c0.24,1.29,0.42,2.56,0.47,3.89
		C191.82,358.25,191.94,359.52,191.87,360.84z"/>
	<path class="st3" d="M194.68,355.94c-1,0.39-1.99,0.71-3.04,0.92c-0.99,0.27-2.03,0.47-3.06,0.49c0.99-0.33,1.98-0.6,3.03-0.8
		C192.61,356.28,193.65,356.08,194.68,355.94z"/>
	<path class="st3" d="M189.93,359.76c0.39-0.99,0.85-1.96,1.42-2.87c0.45-0.98,1.02-1.89,1.59-2.8c-0.39,0.98-0.85,1.96-1.42,2.87
		C191.12,357.95,190.56,358.85,189.93,359.76z"/>
	<path class="st3" d="M194.35,359.45c-0.96-0.63-1.86-1.38-2.74-2.18c-0.89-0.75-1.72-1.55-2.48-2.4c0.96,0.63,1.86,1.38,2.74,2.18
		C192.7,357.79,193.53,358.6,194.35,359.45z"/>
	<path class="st3" d="M188.93,294.84c-0.24-1.29-0.42-2.56-0.47-3.89c-0.18-1.28-0.23-2.61-0.23-3.93c0.24,1.29,0.42,2.56,0.47,3.89
		C188.88,292.19,188.99,293.53,188.93,294.84z"/>
	<path class="st3" d="M191.8,289.88c-0.94,0.39-1.99,0.71-3.04,0.92c-0.99,0.27-2.03,0.47-3.06,0.55c0.99-0.33,1.98-0.6,3.03-0.8
		C189.72,290.29,190.76,290.09,191.8,289.88z"/>
	<path class="st3" d="M187.05,293.7c0.39-0.98,0.85-1.96,1.42-2.87c0.45-0.98,1.02-1.89,1.59-2.8c-0.39,0.98-0.85,1.96-1.36,2.88
		C188.18,291.89,187.67,292.86,187.05,293.7z"/>
	<path class="st3" d="M191.41,293.39c-0.96-0.63-1.86-1.38-2.74-2.18c-0.89-0.75-1.72-1.55-2.48-2.4c0.96,0.63,1.86,1.38,2.74,2.18
		C189.82,291.74,190.65,292.54,191.41,293.39z"/>
	<path class="st3" d="M213.33,307.31c-0.24-1.29-0.42-2.56-0.47-3.89c-0.18-1.28-0.23-2.61-0.23-3.93c0.24,1.29,0.42,2.56,0.47,3.89
		C213.28,304.66,213.33,305.99,213.33,307.31z"/>
	<path class="st3" d="M216.14,302.41c-1,0.39-1.99,0.71-3.04,0.92c-0.99,0.27-2.03,0.47-3.06,0.55c0.99-0.33,1.98-0.6,3.03-0.8
		C214.06,302.75,215.1,302.55,216.14,302.41z"/>
	<path class="st3" d="M211.39,306.17c0.39-0.98,0.85-1.96,1.42-2.87c0.45-0.98,1.02-1.89,1.59-2.8c-0.39,0.99-0.85,1.96-1.42,2.87
		C212.58,304.36,212.01,305.33,211.39,306.17z"/>
	<path class="st3" d="M215.81,305.87c-0.96-0.63-1.85-1.38-2.74-2.18c-0.89-0.75-1.72-1.55-2.48-2.4c0.96,0.63,1.86,1.38,2.74,2.18
		C214.22,304.21,215.05,305.01,215.81,305.87z"/>
	<path class="st3" d="M187.74,316.8c-0.24-1.29-0.42-2.56-0.47-3.89c-0.18-1.28-0.23-2.61-0.23-3.93c0.24,1.29,0.42,2.56,0.47,3.89
		C187.69,314.21,187.74,315.54,187.74,316.8z"/>
	<path class="st3" d="M190.56,311.83c-0.94,0.39-1.99,0.71-3.04,0.92c-0.99,0.27-2.03,0.47-3.06,0.49c0.99-0.33,1.98-0.6,3.03-0.8
		C188.48,312.24,189.53,311.98,190.56,311.83z"/>
	<path class="st3" d="M185.81,315.65c0.39-0.98,0.85-1.96,1.42-2.87c0.45-0.98,1.02-1.89,1.59-2.8c-0.39,0.98-0.85,1.96-1.36,2.88
		C187,313.84,186.43,314.81,185.81,315.65z"/>
	<path class="st3" d="M190.23,315.35c-0.96-0.63-1.86-1.38-2.74-2.18c-0.89-0.75-1.66-1.54-2.42-2.45
		C186.87,312.09,188.59,313.63,190.23,315.35z"/>
	<path class="st3" d="M202.54,323.25c-0.24-1.29-0.42-2.56-0.47-3.89c-0.18-1.28-0.23-2.61-0.23-3.93c0.24,1.29,0.42,2.56,0.47,3.89
		C202.43,320.59,202.55,321.93,202.54,323.25z"/>
	<path class="st3" d="M205.36,318.29c-1,0.39-1.99,0.71-3.04,0.92c-0.99,0.27-2.03,0.47-3.06,0.49c0.99-0.33,1.98-0.6,3.03-0.8
		C203.28,318.69,204.33,318.43,205.36,318.29z"/>
	<path class="st3" d="M200.61,322.11c0.39-0.98,0.85-1.96,1.36-2.88c0.45-0.98,1.02-1.89,1.65-2.79c-0.39,0.98-0.84,1.9-1.41,2.81
		C201.81,320.24,201.23,321.2,200.61,322.11z"/>
	<path class="st3" d="M205.03,321.8c-0.96-0.63-1.86-1.38-2.74-2.18c-0.89-0.75-1.72-1.55-2.48-2.4c0.96,0.63,1.86,1.38,2.74,2.18
		C203.38,320.14,204.21,320.94,205.03,321.8z"/>
	<path class="st3" d="M191.4,336.69c-0.24-1.29-0.42-2.57-0.47-3.89c-0.18-1.28-0.23-2.61-0.23-3.93c0.24,1.29,0.42,2.57,0.47,3.89
		C191.35,334.04,191.4,335.36,191.4,336.69z"/>
	<path class="st3" d="M194.21,331.72c-1.93,0.72-3.97,1.25-6.09,1.41c0,0,1.36-0.35,3.03-0.8
		C192.19,332.13,193.17,331.92,194.21,331.72z"/>
	<path class="st3" d="M189.52,335.55c0.85-1.96,1.87-3.85,3.01-5.67C191.67,331.9,190.65,333.79,189.52,335.55z"/>
	<path class="st3" d="M193.88,335.24c-0.96-0.63-1.86-1.38-2.74-2.18c-0.89-0.75-1.72-1.55-2.48-2.4c0.96,0.63,1.86,1.38,2.74,2.18
		C192.29,333.58,193.12,334.38,193.88,335.24z"/>
</g>
<path class="st13" d="M123.17,183.71c0-3.75-0.87-7.44-2.56-10.8c-1.68-3.36-4.13-6.29-7.15-8.56c-3.02-2.27-6.53-3.83-10.26-4.55
	c-3.73-0.72-7.58-0.58-11.25,0.4c-3.67,0.98-7.06,2.79-9.9,5.27c-2.85,2.48-5.07,5.58-6.5,9.05c-1.43,3.47-2.03,7.22-1.76,10.95
	s1.42,7.36,3.35,10.59l0.07,0.09c0.95,1.58,2.14,2.71,3.34,4.37l14.35,18.79c0.42,0.54,0.95,0.98,1.57,1.29
	c0.62,0.3,1.3,0.46,1.99,0.46c0.69,0,1.37-0.16,1.99-0.46c0.62-0.3,1.15-0.74,1.57-1.29l14.11-18.48c1.29-1.5,2.48-3.07,3.59-4.7
	l0.06-0.06C122,192.31,123.17,188.05,123.17,183.71z"/>
<path class="st3" d="M98.45,198.84c8.19,0,14.83-6.63,14.83-14.81c0-8.18-6.64-14.81-14.83-14.81s-14.83,6.63-14.83,14.81
	C83.61,192.2,90.26,198.84,98.45,198.84z"/>
<path class="st4" d="M98.42,198.83c0.08-0.01,0.16-0.02,0.24-0.03l0.7-0.05l0.51-0.03c0.19,0,0.39-0.06,0.61-0.1
	c0.51-0.07,1.02-0.17,1.52-0.31c1.38-0.35,2.69-0.9,3.9-1.64c1.78-1.07,3.31-2.51,4.49-4.22c1.18-1.71,1.99-3.64,2.38-5.68
	c0.11-0.61,0.18-1.23,0.21-1.85c0-0.32,0.05-0.64,0.04-0.96c0-0.32-0.04-0.64-0.05-0.97c0-0.16,0-0.32-0.04-0.51l-0.07-0.51
	c-0.06-0.32-0.1-0.65-0.16-0.98c-0.15-0.66-0.34-1.31-0.57-1.95c-0.24-0.65-0.52-1.29-0.84-1.9c-0.17-0.31-0.37-0.61-0.54-0.91
	c-0.18-0.31-0.39-0.6-0.61-0.89c-0.43-0.58-0.9-1.14-1.4-1.66c-0.53-0.51-1.1-0.99-1.69-1.43c-1.22-0.91-2.58-1.62-4.02-2.09
	c-2.99-1.01-6.23-1.01-9.22,0c-1.45,0.48-2.81,1.18-4.02,2.09c-1.2,0.85-2.24,1.9-3.1,3.09c-0.22,0.28-0.43,0.58-0.61,0.89
	c-0.18,0.3-0.37,0.6-0.54,0.91c-0.32,0.62-0.6,1.25-0.84,1.9c-0.23,0.64-0.42,1.29-0.57,1.95c-0.07,0.33-0.11,0.66-0.16,0.98
	l-0.08,0.51c0,0.16,0,0.32-0.03,0.51c0,0.32-0.04,0.65-0.05,0.97c-0.02,0.32,0,0.64,0.04,0.96c0.03,0.62,0.1,1.24,0.21,1.85
	c0.38,2.04,1.19,3.98,2.38,5.69c1.19,1.71,2.72,3.14,4.5,4.22c1.21,0.74,2.52,1.29,3.9,1.64c0.5,0.14,1.01,0.25,1.52,0.31
	c0.22,0.04,0.43,0.08,0.61,0.1l0.51,0.03l0.7,0.05c0.08,0,0.16,0.01,0.24,0.03h-0.23h-0.7h-0.51c-0.19,0-0.4-0.06-0.62-0.09
	c-0.51-0.06-1.02-0.15-1.52-0.29c-1.39-0.33-2.73-0.88-3.95-1.61c-1.81-1.07-3.37-2.52-4.58-4.24s-2.03-3.68-2.43-5.74
	c-0.12-0.62-0.19-1.25-0.22-1.88c0-0.32-0.05-0.64-0.04-0.97l0.05-0.98c0-0.17,0-0.33,0.03-0.51l0.08-0.51
	c0.06-0.33,0.09-0.67,0.16-1.01c0.14-0.67,0.34-1.34,0.57-1.98c0.24-0.66,0.52-1.31,0.85-1.94c0.17-0.32,0.37-0.62,0.55-0.93
	c0.18-0.31,0.39-0.61,0.62-0.9c0.87-1.22,1.93-2.28,3.15-3.15c1.24-0.93,2.62-1.65,4.09-2.13c1.52-0.49,3.1-0.75,4.69-0.77
	c1.6,0.02,3.18,0.28,4.7,0.77c1.47,0.49,2.85,1.21,4.09,2.13c0.61,0.45,1.18,0.93,1.72,1.46c0.52,0.53,0.99,1.09,1.43,1.69
	c0.23,0.28,0.43,0.58,0.61,0.9c0.19,0.31,0.39,0.61,0.55,0.93c0.33,0.63,0.61,1.27,0.85,1.94c0.23,0.65,0.42,1.31,0.57,1.98
	c0.07,0.33,0.11,0.67,0.16,1.01l0.07,0.51c0,0.16,0,0.33,0.03,0.51c0,0.33,0.04,0.66,0.05,0.98c0.02,0.32-0.03,0.65-0.04,0.97
	c-0.03,0.63-0.1,1.26-0.22,1.88c-0.39,2.06-1.22,4.02-2.43,5.74c-1.21,1.72-2.77,3.17-4.58,4.24c-1.23,0.74-2.56,1.28-3.95,1.61
	c-0.5,0.14-1.01,0.23-1.52,0.29c-0.22,0.03-0.43,0.07-0.62,0.09h-0.51h-0.7L98.42,198.83z"/>
<path class="st16" d="M135.07,187.75h35.11c5.94,0,10.75-4.81,10.75-10.75v-42.02c0-5.94,4.81-10.75,10.75-10.75h77.22"/>
</svg>
